<svg xmlns="http://www.w3.org/2000/svg" viewBox="0 0 221.1 221.1"><defs><style>.a{fill:#005bab;}.a,.b,.c{fill-rule:evenodd;}.b{fill:#00a74d;}.c,.d{fill:#fff;}</style></defs><path class="a" d="M221.1,110.55A110.55,110.55,0,1,1,110.55,0,110.54,110.54,0,0,1,221.1,110.55ZM110.55,28.18a82.37,82.37,0,1,0,82.37,82.37,82.37,82.37,0,0,0-82.37-82.37Z"/><path class="b" d="M79.78,79.27l.34,0,13.71.12,0-12.28a16.75,16.75,0,0,0-.05-1.87,14,14,0,0,0-28-.71h0V79.25H79.43l.35,0Zm61.52,1a14.05,14.05,0,1,0-14-14,14,14,0,0,0,14,14Zm0,1.7a19.87,19.87,0,0,0-19.88,19.49H99.67c0-.26,0-.52,0-.77a19.9,19.9,0,1,0-39.79,0c0,.75.05,1.5.12,2.24v56.26H99.56v-38h22v39.4h39.53V104.07a18.5,18.5,0,0,0,.13-2.25A19.88,19.88,0,0,0,141.3,81.94Z"/><path class="c" d="M21.17,112.24h-14v1.93h10l-10,4.89v2h14V119.1H11.24l9.93-4.71v-2.15ZM10.28,136.41l13.06-6.33-.37-2L8.51,126.82l.37,2,2.82.19.77,4.19-2.56,1.2.37,2Zm9.88-6.79-5.4,2.49-.62-2.89,6,.4Zm5.56,9.06-1.09-3.29-2.41.83,1.09,3.29-10.88,3.56.61,1.84,10.87-3.55L25,144.57l2.42-.84-1.67-5Zm2.88,8.09-12.73,5.81.8,1.76,12.73-5.81-.8-1.76Zm4.08,7.78q-1.47-2.45-5.06-.29l-2.4,1.45-2.39,1.44q-3.61,2.17-2.14,4.62l1,1.64,1,1.62c1,1.64,2.68,1.73,5.09.29l2.39-1.44,2.4-1.45c2.39-1.44,3.09-3,2.1-4.61l-1-1.62q-.49-.81-1-1.65Zm-7.95,3.72,1.49-.9,1.49-.89c1.47-.89,2.73-1,3.32,0l.58,1,.59,1c.57,1-.1,2-1.58,2.9l-1.48.9-1.49.89c-1.49.9-2.75.86-3.33-.1l-.59-1-.58-1c-.58-1,.1-1.9,1.58-2.8Zm13.91,5.57L28,173l1.26,1.47,7.59-6.53-4.41,10.23,1.28,1.5,10.62-9.12L43.11,169l-7.53,6.47,4.46-10-1.4-1.63Zm6.55,26.59,6-13.23-1.57-1.31-11.9,8.31,1.57,1.3,2.29-1.66,3.28,2.72-1.2,2.57,1.57,1.3Zm3.23-11.55L46,184l-2.17-1.81,4.57-3.29Zm3.63,13.8,6.54-9.57L57,182l-7.93,11.52,6.26,4.31,1.39-2-4.66-3.2Zm22.64,8.53-2.34,5.34,1.77.78,5.6-12.82L78,193.73,75.7,199l-4.5-2,2.25-5.31L71.67,191l-5.6,12.82,1.78.78,2.34-5.34,4.5,2Zm6.64,8.39,6.11,1.94.8-2.53-6.11-1.94,1-3.2,5.39,1.71.69-2.2-5.39-1.71,1-3.08,5.91,1.87.75-2.32-7.76-2.46L79.48,209l1.85.58Zm21.18,4.2-1.64-14.41-2-.32-6,13.22,2,.31L96,210l4.2.66.28,2.82,2,.31Zm-3.12-11.57.54,6.17-3.07-.5,2.53-5.67Zm10.12,9.13V199.81h-1.94v14h7.6v-2.44Zm10.4-11.87-3.45.35.27,2.64,3.45-.35,1.14,11.28,1.93-.2-1.14-11.27,3.36-.35L125.2,199l-5.29.54Zm17.53,5,1.45,5.53,1.88-.5L137.21,196l-1.87.49,1.43,5.44L132,203.2l-1.43-5.43-1.88.49,3.56,13.53,1.87-.49-1.45-5.53,4.75-1.24Zm9.12-12.08,5.53,12.85,1.78-.76-5.53-12.86-1.78.77ZM151.9,190l7.24,12,1.65-1-5.18-8.56,9.36,6,1.69-1-7.24-12-1.65,1,5.14,8.5-9.17-6.06L151.9,190Zm19.11-6.2-2.66,2.12c-.4.32-.95-.1-1.47-.75s-1.06-1.43-.61-1.79l1.17-.93,1.13-.9c.46-.37,1-.06,1.61.72l1.52-1.21a7.05,7.05,0,0,0-2.14-2.14,1.55,1.55,0,0,0-1.75.24l-1.8,1.43-1,.82q-2.34,1.86-.18,4.57l.39.48.69.88c1.32,1.65,2.33,1.72,3.61.7,1-.78,1.82-1.49,2.6-2.11.47-.38,1-.25,1.48.4.71.9,1.41,2,.94,2.38l-1.22,1-1.27,1c-.43.35-.78.12-1.29-.52l-.42-.53-1.51,1.21c.33.47.64.92.92,1.27,1.24,1.52,2.11,1.56,3.2.85a18.2,18.2,0,0,0,1.8-1.43l1.79-1.43q1.65-1.31-.38-3.86l-.7-.88-.6-.75c-1.38-1.73-2.48-1.89-3.82-.82Zm1.22-8.57,6.86,6.63c2.13,2.05,4,2.28,5.54.67l.71-.74.69-.7q2.37-2.46-.83-5.55l-6.86-6.63L177,170.29l6.61,6.29c1.16,1.11,1.37,2,.64,2.81l-.62.63-.61.64c-.72.74-1.66.56-2.82-.55l-6.61-6.29-1.35,1.4Zm21.11-9.33,3.07,2.1,1.1-1.61-3.08-2.1a3.63,3.63,0,0,0-2.13-.64,4.66,4.66,0,0,0-2-2.14l-.73-.5-.74-.5q-2.91-2-4.22-.11l-.68,1-3,4.37,11.55,7.88,1.1-1.6-4.21-2.87,1.88-2.77a2,2,0,0,1,.9-.75,1.26,1.26,0,0,1,1.12.24Zm-7.17-3,.44-.65c.3-.43.94-.3,1.92.37s1.32,1.22,1,1.65l-.44.65-1.89,2.76-3-2,1.88-2.76Zm18.68-9.47-14.19-3.08-.94,1.81,10.6,9.91,1-1.81-2.11-1.89,2-3.77,2.76.64.95-1.81Zm-12-.76,5.48,1.29-1.31,2.5-4.17-3.79Zm.75-8.57,13.18,4.68.65-1.82L198,143.6l11.07-1.25.66-1.86-13.19-4.68-.64,1.82,9.36,3.32-10.93,1.12-.72,2Zm8.8-21c-2.14-.4-3.4.34-3.76,2.21-.11.63-.23,1.25-.34,1.87s-.24,1.25-.35,1.89q-.53,2.81,3.58,3.57l2.76.51,2.75.51q4.14.76,4.66-2c.12-.62.23-1.25.35-1.88s.23-1.25.35-1.89c.35-1.89-.65-3.06-3-3.51l-1.65-.33-.35,1.91c.44.08.82.21,1.26.29,1.32.24,1.56.89,1.35,2-.08.37-.15.75-.22,1.12s-.13.75-.2,1.12c-.21,1.11-1.5,1.39-3.21,1.08l-1.71-.32-1.71-.32c-1.69-.31-2.66-1-2.46-2.14.06-.37.14-.74.21-1.11s.13-.73.2-1.11a1.51,1.51,0,0,1,2-1.36c.37.07.2,0,.59.06l.35-1.91c-.73-.14-.69-.12-1.42-.25Zm11.5-5.45v-6.42h-2.55v6.42h-3.23V112h-2.44v5.66h-3.34v-6.21h-2.43v8.15h14v-1.94Z"/><path class="d" d="M189.9,60.19l-1.44-1.78,2.24-1.83L192.62,59l-1.89,1.53a.35.35,0,0,1-.39.08,1.1,1.1,0,0,1-.44-.37Zm-6.4-7.82-1.26-1.58,2.29-1.87,1.76,2.18-1.95,1.6a.36.36,0,0,1-.37.07,1.33,1.33,0,0,1-.47-.4Zm-11.35-4.79,1.55,1.91a3.17,3.17,0,0,0,1.6,1.16,1.65,1.65,0,0,0,1.48-.39l4.76-3.85a1.12,1.12,0,0,0,.41-.79,3.52,3.52,0,0,0-.15-1.22,2.39,2.39,0,0,0,1.21.36,1.78,1.78,0,0,0,1.08-.4l5.47-4.43-5-6.17-16,12.93L170.45,49l1.7-1.38Zm6.6-5.35.48.6a4.57,4.57,0,0,1,.6.88c.11.23.11.38,0,.46l-4.4,3.56a.59.59,0,0,1-.35.14.39.39,0,0,1-.27-.16l-1.12-1.4,5-4.08Zm6.11-4.94L186.23,39,182,42.44a.37.37,0,0,1-.4.07,1.29,1.29,0,0,1-.45-.38l-.88-1.1,4.62-3.74Zm6.31,6-1-.31a2,2,0,0,1-.61-.36,5.37,5.37,0,0,1-.68-.72l-.41-.51L187,42.59l1.27,1.59a5.06,5.06,0,0,0,1,1c.42.34,2.35.47,2.93.65l3.89,4.92,1.15,1.47a19.15,19.15,0,0,0,.08,3.15,5,5,0,0,0,.71,1.17l1.4,1.79,1.54-1.2-.56-.71a4.63,4.63,0,0,1-.54-.83,1.85,1.85,0,0,1-.21-.67l-.07-1,.24-1.8L193,43.46l-1.81-.18Zm-12.36,15L181.67,62v0l0,.05a3.38,3.38,0,0,0,1.3,1,2,2,0,0,0,1.37,0l2-.78-1.18,2.56a2.65,2.65,0,0,0-.18,1.06,1.58,1.58,0,0,0,.31.83l1.39,1.71,1.41-1.14-.49-.62a.82.82,0,0,1-.21-.48.8.8,0,0,1,.14-.5c.64-2.2.58-1.68-.52-3.67l1.56-.66.86,1.07a3.22,3.22,0,0,0,1.27,1.07,1.09,1.09,0,0,0,1.09-.19l4-3.26-5.52-6.85-5,4.06,1.29,1.6-3.31,1.37a1.23,1.23,0,0,1-.58.06.54.54,0,0,1-.35-.18l-1-1.33h0L181,58.3a.71.71,0,0,1-.19-.44.78.78,0,0,1,.14-.48c.64-1.91.8-1.43-.23-3.18l1.47-.63.88,1.1a2.92,2.92,0,0,0,1.23,1,1.06,1.06,0,0,0,1.07-.2l4.08-3.32-5.29-6.57L179.1,49.7l1.13,1.4-3.17,1.38a1.89,1.89,0,0,1-.56.1.48.48,0,0,1-.34-.18l-.63-.78-1.35,1.09,1.27,1.58a3,3,0,0,0,1.26,1,1.93,1.93,0,0,0,1.36,0l1.37-.55-.78,1.77a2.06,2.06,0,0,0-.16,1,1.31,1.31,0,0,0,.31.81l0,0Zm7.78-14.27,11.27,14.24-1.4,1.11L185.2,45.15l1.39-1.1ZM80.31,7.61l-.93,5.33a2.86,2.86,0,0,1-.27.8.8.8,0,0,1-.46.32l-1.15.19.4,2.39,2-.34,2.28,13.51,3-.5-2.8-16.53,1.19-5.72-3.26.55Zm9.48-.56.3,1.67L94.45,8l.3,1.7-5.33.87.32,1.77,5.33-.87.3,1.67-4.36.7.29,1.68,4.36-.71L96,16.59l-4.8.78.33,1.77,4.77-.78.29,1.6-5.32.87.32,1.76,5.32-.86.18,1,3.38-.55-.17-1,6.43-1.06-.31-1.76L100,19.41l-.27-1.61,5.89-1-.3-1.76-5.91,1-.31-1.77,3-.49a4.05,4.05,0,0,0,1.92-.69,1.21,1.21,0,0,0,.47-1.23L104.07,10l1.68-.28L105.44,8l-1.7.28-.59-3.37-5.61.92-.23-1.25-3.38.55.21,1.25-4.35.71Zm8,.4L100.49,7l.31,1.7-2.67.43-.3-1.7Zm-12.13,10-.29,0L85.67,19l.74-.11h0c.19.06.34.19.39.56.39,1.75.83,3.49,1.15,5.26a1,1,0,0,1-.07.63.92.92,0,0,1-.6.4l-.54.11.35,2,1.56-.27a2.25,2.25,0,0,0,1.24-.62,10.3,10.3,0,0,0,.82-1.8c1.05.58,3,1.68,4,1.49l14-2.34-.34-2-12,2c-1.2.2-6.47-1.56-6.47-2.44-.26-2.12-.82-4.37-1.89-4.46h0a1.1,1.1,0,0,0,.75-1.13L87.5,8.52a.82.82,0,0,0-.91-.69l-2.38.34-.51.09.3,2,.55-.09c.36-.07.76-.05.82.45l1,6.06c0,.34-.28.68-.72.74Zm12.75-6.5,2.67-.44.22,1.32a.29.29,0,0,1-.14.31,1.16,1.16,0,0,1-.51.17l-2,.32-.29-1.68ZM50.94,33,68.12,22.46a3,3,0,0,0,1.24-1.23,1.46,1.46,0,0,0-.18-1.38l-3.66-6L43.41,27.46l9.78,15.93a1.67,1.67,0,0,0,1.23.89,2.88,2.88,0,0,0,1.76-.53L65.47,38l-1.21-2-7.68,4.73A1,1,0,0,1,56,41a.41.41,0,0,1-.36-.2l-2.21-3.59c3.88-2.39,7.71-4.76,11.56-7.12l6.81,2.76c.72.59,1.93.2,2.63-.23l3.44-1.9-1.32-1.83L74.28,30.1a1.28,1.28,0,0,1-.57.19.84.84,0,0,1-.49-.18l-5-2,5.35-3.28-1.15-1.9-6.78,4.16L64,26.46l-3.14,1.92,1.59.65L52.3,35.28,50.94,33Zm-3.37-5.49,16.11-9.9,2,3.17a.37.37,0,0,1,0,.39,1.15,1.15,0,0,1-.4.39L49.75,31.12l-2.18-3.57Zm-8.1,12.11L23.88,59.28l1.83,1.44,6.73-8.48,2.58,2L28.45,62.6,30.25,64l6.57-8.31,2.42,1.91-7.14,9L34,68.16,50.48,47.3l-1.9-1.5-7.22,9.14L38.93,53l6.64-8.42-1.79-1.41-6.65,8.4-2.58-2,6.74-8.48-1.82-1.43ZM22,53.23l.12,1.25a1.66,1.66,0,0,1-.11.78,3.79,3.79,0,0,1-.53.86l-1.28,1.62,1.31,1,2.16-2.72a5.62,5.62,0,0,0,.92-1.55,2.79,2.79,0,0,0,.15-1.41l0-2.47,3.12-3.93,3.7-4.63,2.42-.52a2.78,2.78,0,0,0,1.33-.47,5.6,5.6,0,0,0,1.31-1.25l2.18-2.7-1.3-1-1.3,1.61a3.23,3.23,0,0,1-.73.71,1.64,1.64,0,0,1-.72.28l-1.24.16-2.16-.06-4.95,6.17h0l-.29.36-.31.39h0l-4.31,5.45L22,53.23Zm111.62-28,.41,1.7a2.34,2.34,0,0,0,2,1.82l4.06.75.35-1.85-2.72-.5a.68.68,0,0,1-.36-.18.71.71,0,0,1-.18-.4l-.1-.7-3.44-.64Zm4-3.34a2.72,2.72,0,0,1-.78.7,1.2,1.2,0,0,1-.78.14l-2.71-.51L133,24.09l4.06.76a3.21,3.21,0,0,0,1,0,2.23,2.23,0,0,0,.89-.25,3,3,0,0,0,.94-.71,14.93,14.93,0,0,0,1.1-1.42l-3.34-.62Zm-15.39,1.23a3,3,0,0,1-.84.72,1.45,1.45,0,0,1-.86.12l-1.82-.35-.35,1.85,3.19.6a3.82,3.82,0,0,0,2-.17,3.36,3.36,0,0,0,1-.7,10.12,10.12,0,0,0,1.16-1.43l-3.46-.64Zm-1.61-4.39.54,1.68a2.49,2.49,0,0,0,.83,1.27,3.44,3.44,0,0,0,1.53.64l2.95.56.35-1.88-1.73-.32a1.28,1.28,0,0,1-.58-.23.8.8,0,0,1-.32-.4l-.22-.71-3.35-.61Zm12-1.81,4.56.85-.15.85a.31.31,0,0,1-.23.24,1.41,1.41,0,0,1-.57,0l-3.84-.71.23-1.21Zm.52-2.77,4.56.85-.2,1.11L133,15.25l.22-1.1Zm-11.71-4.1-.34,1.86L130,13.56l-.2,1.11-9.47-1.79L120,14.53l9.47,1.79-.22,1.22-8.86-1.65-.34,1.85,8.86,1.66-1.09,5.91a.34.34,0,0,1-.23.26,1,1,0,0,1-.49,0l-1.23-.23-.34,1.85,2,.38a4.82,4.82,0,0,0,2.37,0,1.52,1.52,0,0,0,1-1.25l1.17-6.3,4.95.92c1.89.36,2.93,0,3.13-1l.27-1.48,2,.36.31-1.66-2-.37.55-3-7.79-1.45.2-1.12-3.18-.59-.2,1.11-8.86-1.65Zm8.21-3.84-.24,1.3-11.82-2.2-3.21,17.33a.29.29,0,0,1-.21.24,1.14,1.14,0,0,1-.49,0l-1-.18-.4,2L114,25a4,4,0,0,0,2.52-.16,2.15,2.15,0,0,0,1.14-1.64L120.49,8l23.38,4.34.38-2L133.16,8.21l.24-1.31-3.69-.69Zm34.06,29.27-1.3,5.28a2.24,2.24,0,0,0,.1,1.54,3,3,0,0,0,1.16,1.26l2,1.34L167,43l-.86-.56a.89.89,0,0,1-.31-.42,1.14,1.14,0,0,1,0-.63l.91-3.87-3-2Zm-9.41-6.27-2.91,2.58a2,2,0,0,1-.61.28.57.57,0,0,1-.42,0l-1.35-.9L147.83,33l2.28,1.53a3.2,3.2,0,0,0,1.68.59,2.39,2.39,0,0,0,1.51-.58l4-3.35-2.91-1.94Zm15.44.56-9.28-6.18,2.36-3.54,9.81,6.55-2,3a.69.69,0,0,1-.43.34.67.67,0,0,1-.48-.13Zm-8.65-13.43-4.72,7.07,5.9,3.93-1.39,2.08-7.22-4.81-1.29,1.92,7.22,4.82-4.71,7.06,3,2,4.72-7.07L170,38.25l1.28-1.93-7.34-4.9,1.38-2.08L170,32.45c1.38.91,2.41.85,3.09-.17l3.69-5.53-15.6-10.41Zm-3.79-3.24-3.66,2.24a2,2,0,0,1-.67.23.68.68,0,0,1-.52-.12l-1.14-.76-1.35,2,1.78,1.18-8.52,12.75,2.78,1.85L156,17.6l4.34-2.5-3-2Z"/></svg>