<svg xmlns="http://www.w3.org/2000/svg" viewBox="0 0 660 100"><defs><style>.a{fill:#005bab;}.a,.b,.c{fill-rule:evenodd;}.b{fill:#00a74d;}.c,.d{fill:#fff;}</style></defs><path class="a" d="M100,50A50,50,0,1,1,50,0a50,50,0,0,1,50,50ZM50,12.75A37.25,37.25,0,1,0,87.25,50,37.24,37.24,0,0,0,50,12.75Z"/><path class="b" d="M36.08,35.85h.16l6.2.06,0-5.56a7.86,7.86,0,0,0,0-.84,6.34,6.34,0,0,0-12.68-.32h0v6.66h6.35Zm27.83.44a6.36,6.36,0,1,0-6.35-6.35,6.35,6.35,0,0,0,6.35,6.35Zm0,.77a9,9,0,0,0-9,8.82H45.08c0-.12,0-.24,0-.35a9,9,0,1,0-18,0c0,.34,0,.67.06,1V72H45V54.81H55V72.63H72.85V47.07c0-.34.06-.67.06-1a9,9,0,0,0-9-9Z"/><path class="c" d="M9.57,50.76H3.25v.88H7.77L3.25,53.85v.89H9.57v-.87H5.08l4.49-2.13v-1ZM4.65,61.7l5.91-2.87-.17-.91-6.54-.56.17.91,1.27.08.35,1.9-1.16.54.17.91Zm4.47-3.07L6.68,59.75,6.4,58.44l2.72.19Zm2.51,4.09-.49-1.49-1.09.38.49,1.49L5.62,64.71l.28.83,4.92-1.61.48,1.45L12.39,65l-.76-2.29Zm1.3,3.66L7.18,69l.36.79,5.76-2.62-.37-.8Zm1.85,3.52c-.44-.74-1.21-.78-2.29-.13l-1.08.65-1.09.66c-1.08.65-1.41,1.35-1,2.08l.45.75.44.73c.44.74,1.21.78,2.3.13l1.08-.65,1.09-.66c1.08-.65,1.39-1.34.95-2.08-.15-.25-.3-.49-.44-.74l-.45-.74Zm-3.6,1.68.68-.4.67-.41c.67-.4,1.24-.43,1.5,0l.27.44.26.44c.26.43,0,.91-.71,1.31l-.67.41-.68.4c-.67.41-1.24.39-1.5,0l-.27-.43c-.08-.15-.17-.3-.26-.44-.26-.44,0-.86.71-1.27Zm6.3,2.52-4.8,4.12.57.67,3.43-3-2,4.63.59.68,4.8-4.12-.57-.67-3.41,2.93,2-4.54-.63-.74Zm3,12,2.7-6-.72-.59L17,83.31l.71.59,1-.75,1.48,1.23-.54,1.16.71.59Zm1.46-5.22-1.09,2.3-1-.82,2.07-1.48Zm1.64,6.23,3-4.32-.73-.5-3.58,5.22L25,89.48l.63-.89-2.11-1.45ZM33.78,91l-1.06,2.42.8.35L36.06,88l-.81-.35-1,2.4-2-.89,1-2.4-.81-.35-2.53,5.8.81.35,1-2.42,2,.89Zm3,3.8,2.77.88.36-1.15-2.76-.88.46-1.45,2.44.78.31-1-2.44-.77.44-1.39,2.67.84.34-1L37.86,88.5l-1.91,6,.83.27Zm9.58,1.9-.74-6.52L44.71,90,42,96l.91.15L43.42,95l1.9.3.13,1.28.91.14ZM45,91.47l.25,2.78L43.81,94,45,91.47Zm4.58,4.13V90.37h-.88V96.7h3.44V95.6Zm4.7-5.38-1.56.16.12,1.2,1.56-.16.52,5.1.87-.09-.51-5.1,1.52-.15L56.63,90l-2.4.24Zm7.93,2.28.66,2.5.85-.22-1.61-6.12-.85.22.65,2.46-2.15.57-.65-2.46-.85.22,1.61,6.12.85-.22L60,93.07l2.15-.57ZM66.29,87l2.5,5.81.8-.34-2.5-5.81-.8.34Zm2.41-1.11L72,91.34l.74-.45L70.38,87l4.23,2.73.77-.46L72.1,83.87l-.74.45,2.32,3.85-4.14-2.75-.84.51Zm8.65-2.81-1.21,1c-.18.15-.43,0-.66-.34s-.48-.64-.28-.81l.53-.42.51-.4c.21-.17.45,0,.73.32l.69-.54a3.28,3.28,0,0,0-1-1,.7.7,0,0,0-.79.1c-.34.28-.62.49-.82.65l-.46.38c-.71.56-.73,1.24-.08,2.06a2.76,2.76,0,0,0,.17.22l.32.39c.59.75,1,.78,1.62.32s.83-.67,1.18-1,.44-.11.67.18.64.91.43,1.08-.44.34-.55.44l-.58.45c-.19.16-.35.06-.58-.24L77,85.77l-.69.54c.15.22.29.42.42.58.56.68,1,.7,1.45.38a7.55,7.55,0,0,0,.81-.65l.81-.64c.5-.4.44-1-.17-1.75l-.32-.39-.27-.35c-.62-.78-1.12-.85-1.72-.37Zm.55-3.87,3.1,3c1,.93,1.8,1,2.5.3l.33-.33c.13-.14.23-.25.31-.32.71-.74.59-1.58-.38-2.51l-3.1-3-.61.63,3,2.84c.52.5.62.93.29,1.27l-.28.29-.28.29c-.33.34-.75.25-1.27-.25l-3-2.84-.61.63ZM87.44,75l1.39,1,.5-.73-1.39-1A1.7,1.7,0,0,0,87,74a2.08,2.08,0,0,0-.88-1l-.33-.22-.34-.23c-.87-.6-1.51-.62-1.9,0l-.31.45-1.35,2,5.23,3.56.49-.72-1.9-1.3.85-1.25a.88.88,0,0,1,.41-.34.56.56,0,0,1,.5.11ZM84.2,73.67l.2-.29c.13-.2.42-.14.87.16s.6.55.47.75l-.2.29-.85,1.25-1.34-.91.85-1.25Zm8.45-4.28L86.23,68l-.42.82L90.6,73.3l.43-.82-1-.86.89-1.7,1.25.29.43-.82Zm-5.41-.34,2.47.58-.59,1.13-1.88-1.71Zm.33-3.88,6,2.12.29-.83L89.56,65l5-.57.29-.84-6-2.12-.29.83,4.23,1.5-4.94.5-.33.92Zm4-9.5c-1-.18-1.54.15-1.7,1-.06.28-.11.57-.16.85s-.11.56-.16.85c-.16.85.38,1.38,1.62,1.61l1.25.24,1.24.23c1.25.23,1.95-.08,2.11-.92,0-.29.11-.57.16-.86s.11-.56.16-.85c.16-.86-.3-1.39-1.37-1.59-.35-.06-.39-.08-.74-.15l-.16.87c.19,0,.37.09.57.13.59.11.7.4.61.91,0,.18-.07.35-.1.51L94.8,59c-.1.5-.68.63-1.45.49l-.78-.15-.77-.14c-.76-.14-1.2-.46-1.11-1l.09-.5.09-.5a.69.69,0,0,1,.9-.62c.17,0,.09,0,.27,0l.16-.87-.64-.11Zm5.19-2.47V50.3H95.6v2.9H94.14V50.65H93V53.2H91.53V50.4h-1.1v3.68h6.32V53.2Z"/><path class="d" d="M85.89,27.22l-.65-.8,1-.83.87,1.07-.86.69a.14.14,0,0,1-.17,0,.45.45,0,0,1-.2-.17ZM83,23.69,82.42,23l1-.85.8,1-.89.73a.17.17,0,0,1-.17,0,.77.77,0,0,1-.21-.18Zm-5.13-2.17.7.86a1.45,1.45,0,0,0,.73.53.73.73,0,0,0,.66-.18L82.11,21a.5.5,0,0,0,.18-.36,1.43,1.43,0,0,0-.07-.55,1,1,0,0,0,.55.16.76.76,0,0,0,.49-.18l2.47-2-2.24-2.79-7.22,5.85.82,1,.77-.62Zm3-2.42.22.27a2.31,2.31,0,0,1,.28.4c0,.1,0,.17,0,.21l-2,1.61a.32.32,0,0,1-.16.06.15.15,0,0,1-.12-.07l-.51-.64,2.27-1.84Zm2.77-2.24.62.78L82.3,19.19a.17.17,0,0,1-.18,0,.53.53,0,0,1-.2-.18l-.4-.49,2.09-1.7Zm2.85,2.71L86,19.43a.9.9,0,0,1-.28-.16,2.38,2.38,0,0,1-.3-.32l-.19-.24-.69.55.58.72a2.21,2.21,0,0,0,.46.46,7.31,7.31,0,0,0,1.32.29L88.67,23l.52.66a8.36,8.36,0,0,0,0,1.43,2,2,0,0,0,.32.53l.64.81.69-.55-.25-.32a1.85,1.85,0,0,1-.25-.37,1,1,0,0,1-.09-.31l0-.47.1-.81-3.08-3.9-.82-.09Zm-5.59,6.81,1.29,1.68h0v0a1.44,1.44,0,0,0,.59.46.88.88,0,0,0,.62,0l.92-.36-.53,1.16a1.24,1.24,0,0,0-.08.48.7.7,0,0,0,.14.38l.63.77.64-.52-.23-.28a.39.39,0,0,1-.09-.22.31.31,0,0,1,.06-.22c.29-1,.26-.76-.23-1.66l.7-.3.39.48a1.52,1.52,0,0,0,.58.49.47.47,0,0,0,.49-.09l1.81-1.47-2.5-3.1-2.26,1.84.58.72-1.49.62a.68.68,0,0,1-.27,0,.24.24,0,0,1-.15-.08l-.44-.6h0l-.18-.23a.32.32,0,0,1-.09-.2.39.39,0,0,1,.06-.22c.29-.86.37-.64-.1-1.44l.67-.28.39.5a1.35,1.35,0,0,0,.56.45.47.47,0,0,0,.48-.09l1.85-1.5-2.39-3L81,22.48l.51.63-1.44.62a.68.68,0,0,1-.25.05.19.19,0,0,1-.15-.08l-.29-.35-.61.49.57.72a1.42,1.42,0,0,0,.57.44.94.94,0,0,0,.62,0l.62-.25-.36.8a1.08,1.08,0,0,0-.07.45.63.63,0,0,0,.14.37h0Zm3.52-6.46,5.1,6.44-.63.5-5.1-6.44.63-.5ZM36.32,3.44,35.9,5.85a1.07,1.07,0,0,1-.12.36.38.38,0,0,1-.21.15l-.52.09.18,1.08.91-.16,1,6.11,1.35-.22L37.26,5.78l.54-2.59-1.48.25Zm4.29-.25.14.75,2-.32.13.77-2.41.39.15.8L43,5.19l.13.76-2,.32.13.75,2-.32.15.8-2.17.36.15.8,2.16-.36.13.73-2.41.39.14.8,2.41-.39.08.44L45.43,10l-.08-.44,2.91-.48-.14-.8-2.92.48-.12-.73,2.67-.43-.14-.8-2.67.43-.14-.79,1.33-.23A1.79,1.79,0,0,0,47,5.92a.54.54,0,0,0,.21-.55l-.14-.84.76-.13-.14-.8-.77.13L46.65,2.2l-2.54.42L44,2.06l-1.53.24.1.57-2,.32Zm3.64.18,1.2-.19.14.76-1.21.2-.13-.77ZM38.76,7.88l-.13,0,.12.67.33-.05h0c.09,0,.16.08.18.25.17.79.37,1.58.52,2.38a.48.48,0,0,1,0,.28.43.43,0,0,1-.28.19l-.24.05.16.9.71-.13a1,1,0,0,0,.56-.28,4.23,4.23,0,0,0,.36-.81,3.87,3.87,0,0,0,1.82.67l6.31-1L49,10.06,43.59,11c-.54.09-2.92-.7-2.92-1.1-.12-1-.37-2-.86-2h0a.5.5,0,0,0,.34-.51l-.58-3.47a.37.37,0,0,0-.41-.31l-1.07.16-.24,0,.14.9.25,0c.16,0,.34,0,.37.2l.48,2.75c0,.15-.13.3-.33.33Zm5.76-2.94,1.21-.2.1.6a.11.11,0,0,1-.06.14.67.67,0,0,1-.23.08l-.88.14-.14-.76ZM23,14.94l7.77-4.78a1.41,1.41,0,0,0,.56-.56A.64.64,0,0,0,31.29,9l-1.66-2.7-10,6.14,4.42,7.2a.78.78,0,0,0,.56.41,1.41,1.41,0,0,0,.8-.24l4.2-2.59-.55-.9-3.47,2.14a.51.51,0,0,1-.25.09.18.18,0,0,1-.16-.09l-1-1.63,5.23-3.21,3.08,1.24a1.1,1.1,0,0,0,1.19-.1l1.56-.86-.6-.83-1,.56a.67.67,0,0,1-.26.09.35.35,0,0,1-.22-.08l-2.28-.9,2.42-1.49-.52-.86-3.07,1.88L29,12l-1.42.87.72.29L23.65,16l-.61-1Zm-1.53-2.48L28.8,8l.89,1.44a.19.19,0,0,1,0,.18.59.59,0,0,1-.18.17l-7,4.31-1-1.62Zm-3.66,5.48-7,8.87.83.65,3-3.83,1.17.92-3,3.76.81.64,3-3.76,1.1.87-3.23,4.09.85.68,7.46-9.44L22,20.72,18.7,24.85,17.61,24l3-3.81-.81-.64-3,3.8-1.16-.92,3-3.83-.82-.65ZM9.94,24.08l.05.56a.63.63,0,0,1-.05.35,1.72,1.72,0,0,1-.24.39l-.58.73.6.47,1-1.23a2.54,2.54,0,0,0,.42-.7,1.18,1.18,0,0,0,.06-.64V22.89l1.41-1.77L14.25,19l1.09-.23a1.35,1.35,0,0,0,.6-.21,2.63,2.63,0,0,0,.6-.57l1-1.22-.59-.48-.58.73a1.4,1.4,0,0,1-.33.32.76.76,0,0,1-.33.13l-.56.07-1,0-2.24,2.8h0l-.13.17-.14.18h0l-2,2.46.25.95ZM60.42,11.41l.19.77a1,1,0,0,0,.89.82l1.84.34.15-.83-1.23-.23a.3.3,0,0,1-.16-.08A.37.37,0,0,1,62,12l0-.32-1.56-.29ZM62.25,9.9a1.13,1.13,0,0,1-.35.32.55.55,0,0,1-.35.06l-1.23-.23-.16.84,1.84.35a1.64,1.64,0,0,0,.44,0,.93.93,0,0,0,.4-.12,1.35,1.35,0,0,0,.43-.32,7.4,7.4,0,0,0,.49-.64L62.25,9.9Zm-7,.56a1.32,1.32,0,0,1-.38.32.67.67,0,0,1-.39.06l-.82-.16-.16.83,1.44.28a2.54,2.54,0,0,0,.47,0,2.26,2.26,0,0,0,.45-.1,1.47,1.47,0,0,0,.43-.32,4.86,4.86,0,0,0,.53-.64l-1.57-.29Zm-.73-2,.25.76a1.21,1.21,0,0,0,.37.58,1.67,1.67,0,0,0,.69.29l1.34.25.16-.85-.79-.15a.51.51,0,0,1-.26-.1.37.37,0,0,1-.14-.18l-.1-.32-1.52-.28ZM60,7.65,62.08,8,62,8.42a.14.14,0,0,1-.11.11.73.73,0,0,1-.25,0L59.91,8.2l.1-.55Zm.24-1.25,2.06.38-.09.51L60.15,6.9l.1-.5ZM55,4.55l-.15.84,4,.74-.09.51-4.28-.81-.14.74,4.28.81-.1.55-4-.74L54.31,8l4,.75-.49,2.68a.12.12,0,0,1-.1.11.52.52,0,0,1-.22,0l-.56-.11-.15.84.9.17a2.19,2.19,0,0,0,1.07,0,.71.71,0,0,0,.47-.56L59.75,9,62,9.45c.86.16,1.33,0,1.42-.47l.12-.67.89.16.14-.75-.89-.16.25-1.34L60.4,5.56l.09-.5-1.44-.27-.09.5-4-.74Zm3.71-1.74-.1.59-5.35-1-1.45,7.84a.13.13,0,0,1-.1.11h-.22L51,10.27l-.18.92.73.13a1.75,1.75,0,0,0,1.14-.07,1,1,0,0,0,.52-.74L54.49,3.6l10.58,2,.17-.92-5-.94.11-.59-1.67-.31ZM74.07,16.05l-.59,2.39a1,1,0,0,0,0,.69,1.33,1.33,0,0,0,.52.57l.9.61.58-.88-.39-.26A.4.4,0,0,1,75,19a.58.58,0,0,1,0-.29L75.42,17l-1.35-.9Zm-4.26-2.84L68.5,14.38a.78.78,0,0,1-.28.12.24.24,0,0,1-.19,0l-.61-.41-.56.84,1,.69a1.56,1.56,0,0,0,.76.27,1.13,1.13,0,0,0,.68-.26l1.8-1.52-1.32-.88Zm7,.26-4.2-2.8,1.07-1.6,4.43,3-.89,1.34a.32.32,0,0,1-.2.15.25.25,0,0,1-.21,0ZM72.88,7.39l-2.13,3.2,2.67,1.78-.63.94-3.26-2.18-.59.87,3.27,2.18-2.13,3.19,1.35.91,2.13-3.2,3.33,2.22.58-.87-3.33-2.22.63-.94,2.1,1.41c.63.41,1.09.38,1.4-.08l1.67-2.5L72.88,7.39ZM71.17,5.93l-1.66,1a.81.81,0,0,1-.3.1A.28.28,0,0,1,69,7l-.52-.35-.61.92.8.53L64.8,13.86l1.26.83L70.56,8l2-1.13-1.35-.9Z"/><path d="M128.56,31.52c.77.15,1.23.39,1.23.85s-.31.69-.92,1.15c-.24,6.55-.47,11.32-.77,14.4-.31,2.31-.62,4.62-1,6.93l-6.31-1.15c.54-2.62.93-4.93,1.16-6.78a148.23,148.23,0,0,0,.92-15.78Zm8.77-14.63c1.16.16,1.78.46,1.78,1,0,.31-.47.85-1.24,1.54V86.19h-6.62V16.35ZM147,41.68h41.34V57.62h-43V44.92l-3.93.92a120.38,120.38,0,0,0-2.08-14.09l4.78-1.23A96.58,96.58,0,0,1,147,41.68Zm32.8,20.1a5.71,5.71,0,0,1,1.69-1.15,2.27,2.27,0,0,1,1.31.61l3.16,3a1.49,1.49,0,0,1,.61,1.16c0,.46-.69,1.08-2.08,1.85a41,41,0,0,1-9.31,9.85c3.62,1.08,9.39,2,17.4,2.77l-4.78,6.32a97.75,97.75,0,0,1-17.63-4.47c-.69-.31-1.38-.54-2-.85C162.67,83.19,155.27,85,146,86.5L141.8,81c5.85-.62,10.63-1.31,14.24-2.08a56.84,56.84,0,0,0,5.86-1.54c-.93-.62-1.7-1.23-2.47-1.85a31.77,31.77,0,0,1-7.16-8.62h-4.46V61.78Zm4.08-43.89V38.37H150.81V17.89ZM158.35,46.46h-6.62v6.31h6.62ZM177.6,26V22.74H157.12V26Zm0,4.23H157.12v3.31H177.6ZM164.74,72.56a21.31,21.31,0,0,0,3.78,2,4.47,4.47,0,0,0,.92-.54,27.41,27.41,0,0,0,7.7-7.08H158.82A20.79,20.79,0,0,0,164.74,72.56Zm5.63-26.1h-6.63v6.31h6.63Zm11.7,0h-6.31v6.31h6.31Z"/><path d="M215.18,50.38V72.56a10.44,10.44,0,0,0,6.55,4.93c3.23,1,8.16,1.46,14.78,1.46q17.9,0,32.8-.92l-2.39,7.54H236.51a63.26,63.26,0,0,1-14.24-1.31,19.43,19.43,0,0,1-8.86-4.39,9.4,9.4,0,0,1-2.23-2.69L204.09,84c-.46.77-.84,1.23-1.23,1.23a1.3,1.3,0,0,1-1.23-1L197.78,79a72.52,72.52,0,0,0,10.78-6.7V57.31h-6.31V50.38Zm.62-9.62-4.54,4.77A94.57,94.57,0,0,0,198,37.14l4.85-4.77A72.2,72.2,0,0,1,215.8,40.76Zm1.46-15.94-4.47,4.78a91.28,91.28,0,0,0-11.47-6.86l4.85-4.85A62.91,62.91,0,0,1,217.26,24.82Zm22.56-2.69v-6l6.31.46c1.24.16,1.85.47,1.85,1s-.46,1-1.23,1.85v2.7h18.94v6H246.75v4.78H263V59.09H246.75v4.85h21.4v6h-21.4v7.47h-6.93V69.94h-20.1v-6h20.1V59.09H223.88V32.91h15.94V28.13H220.57v-6Zm0,21V38.68H230.5v4.47Zm0,5.39H230.5v4.85h9.32Zm6.93-5.39h9.62V38.68h-9.62Zm9.62,5.39h-9.62v4.85h9.62Z"/><path d="M294.18,18.35c.85.16,1.31.39,1.31.77,0,.54-.54,1-1.46,1.47-.39.61-.69,1.15-1,1.54h17.78v5.39h-9.93a27.41,27.41,0,0,1,2.77,5.69l-5.77,1.24a47.69,47.69,0,0,0-3.47-6.93h-5.08a82.94,82.94,0,0,1-7.08,7.85l-5.7-3A49.15,49.15,0,0,0,288.26,17Zm49.44,23.87L327,43.3l3.62,2a1.37,1.37,0,0,1,.69,1.16c0,.46-.53.61-1.53.61-3.31,1.24-6.32,2.31-9,3.16a25.92,25.92,0,0,0,5.08,2.31A30.68,30.68,0,0,0,334.61,54a3.09,3.09,0,0,0,2.54-1.15,15.57,15.57,0,0,0,2-5.47l5.08,3.93c-1.23,3.39-2.39,5.62-3.62,6.7a7.67,7.67,0,0,1-5.7,2.31A31.54,31.54,0,0,1,323.6,58a31,31,0,0,1-10.09-5.55c-4.08,1.08-8.08,2-12.09,2.7-5.16.92-11.78,1.85-19.79,2.77l-4.16-5.16a213.31,213.31,0,0,0,21.41-2.54c3.77-.69,7.24-1.46,10.47-2.23-.23-.31-.38-.54-.54-.77a9.82,9.82,0,0,1-1.31-2.7l-30,1.93-.3-5.39,28.64-1.85a45,45,0,0,1-1-7.78l6,.54c1,.16,1.55.46,1.55.93,0,.69-.62,1.54-1.85,2.46a19.35,19.35,0,0,0,.69,3.47L324.29,38a65.53,65.53,0,0,0-6.55-5.08l3.62-3.31a58.29,58.29,0,0,1,8.17,6l-2.39,2.23,15.86-1Zm0,25.33-17,1.16,3.93,2.16a1.43,1.43,0,0,1,.76,1.15c0,.46-.53.62-1.53.62-3.39,1.46-6.47,2.69-9.32,3.77a35.73,35.73,0,0,0,14.17,3.16,3.22,3.22,0,0,0,2.69-1.08c.77-.77,1.46-2.47,2.08-4.93l5.47,3.85c-1.23,3.23-2.54,5.47-3.93,6.54a8.63,8.63,0,0,1-6,2.24,39.1,39.1,0,0,1-12.55-2.39A35.56,35.56,0,0,1,312.51,79c-3.77,1.08-7.39,2.08-10.93,2.85-5.09,1-11.63,2-19.64,3.08l-4.47-5.39a172.84,172.84,0,0,0,21.1-2.93c3.08-.62,5.93-1.39,8.7-2.16a8.81,8.81,0,0,1-1.38-1.69,14.17,14.17,0,0,1-1.39-2.62l-27,1.85-.3-5.39,25.48-1.77a42.66,42.66,0,0,1-1.15-8.16l6.54.61c1.08.24,1.62.62,1.62,1.16s-.77,1.31-2.16,2.16a15.1,15.1,0,0,0,.93,3.84l8.7-.61a41.74,41.74,0,0,0-5.7-4.77l3.62-3.32a48.41,48.41,0,0,1,7.24,5.7L319.9,63.7,343,62.09Zm-18.79-49.2c.92.16,1.38.39,1.38.77,0,.54-.53,1-1.54,1.47-.38.61-.69,1.15-.92,1.54h18.94v5.39h-9.32a26.93,26.93,0,0,1,2.7,5.69l-5.7,1.24a48.68,48.68,0,0,0-3.46-6.93h-7.09c-1.54,1.77-3.08,3.46-4.77,5.08l-5.7-3A41.71,41.71,0,0,0,319,17ZM322.6,68.94l-11.4.77a10.28,10.28,0,0,0,1.85,2.16,2,2,0,0,0,.77.61A91.82,91.82,0,0,0,322.6,68.94Zm.61-25.41-9.55.62a8.41,8.41,0,0,0,1.7,2.15C318.13,45.46,320.75,44.53,323.21,43.53Z"/><path d="M391.59,30.75c.69.39,1.08.69,1.08,1,0,.62-.47,1.08-1.24,1.46l-1,1.24h7.62V57.93h-7.54v5.39h30.72V69H394.9A55.08,55.08,0,0,0,406,74.1a124.44,124.44,0,0,0,17,4.23l-6.62,6a96,96,0,0,1-14.32-5.47,55.78,55.78,0,0,1-11.55-7.54V86.19H384.2V71.79a66.47,66.47,0,0,1-12.32,7.7,80.83,80.83,0,0,1-15.33,5.16l-5.39-5.39a122,122,0,0,0,18.71-5.39,57.92,57.92,0,0,0,9.4-4.85h-26v-5.7h31V57.93h-6.86V34.45h6.47l3.16-6ZM369,31c.54.31.85.54.85.77,0,.46-.31.85-.93,1.16l-7,7.93c1,.77,1.92,1.54,2.77,2.23l5.47-6.85L374.49,39a1.35,1.35,0,0,1,.7,1.15c0,.47-.39.77-1.16.93L362.48,53.31q3.81-.23,7.16-.69c-.3-1.08-.69-2.24-1.07-3.47L373.42,48a63.08,63.08,0,0,1,3.31,11.09l-5.47,1.23c-.15-1.08-.31-2.16-.54-3.39l-16.25,2.16c-.61.84-1.15,1.23-1.53,1.23s-.77-.39-.85-1.16l-.31-5.46c1.46,0,2.93,0,4.31-.08l5.55-6.85c-2.7-2.16-5.62-4.24-8.7-6.32l3-3.92c.77.53,1.46,1.07,2.23,1.54l6.78-9Zm4.16-9.78V16.12l5.85.39c1.08.07,1.69.3,1.69.77s-.46,1.07-1.23,1.84V21.2h15.63V16.35l6.08.54c1.16.16,1.78.46,1.78,1,0,.31-.47.85-1.24,1.54V21.2h19.87v5.7H401.67v3.31h-6.62V26.9H379.42v3.62h-6.31V26.9H352.94V21.2Zm19.56,22.56V39.22h-9.94v4.54Zm0,4.55h-9.94v4.77h9.94Zm20.48-17.64c.54.31.84.54.84.77,0,.47-.3.85-.92,1.16L407.22,40l2.85,2.62,4.54-5.78L419,39.61a1.34,1.34,0,0,1,.69,1.15c0,.46-.38.77-1.15.92l-10.48,11.4c2.62-.15,5-.39,7.32-.69-.46-1.24-.92-2.47-1.39-3.85l4.85-1.16a56.75,56.75,0,0,1,3.85,11.4L417.3,60a31.42,31.42,0,0,0-.69-3.39l-14.94,2.16c-.61.84-1.15,1.23-1.54,1.23s-.77-.39-.84-1.16L399,53.39c1,0,1.92,0,2.77-.08l5.39-6.93c-2.62-2.31-5.39-4.54-8.47-6.85l3-3.93c.62.54,1.31,1,1.93,1.46l5.62-8.31Z"/><path d="M460.66,52.77V85.26H454V81.34h-15.1v3.92h-6.62V52.77ZM454,75V59.09h-15.1V75Zm29.49-54.43V47.38H445V20.59ZM476.6,26.9H451.88V41.07H476.6Zm19.55,25.87V85.26h-6.62V81.34h-15.4v3.92h-6.62V52.77ZM489.53,75V59.09h-15.4V75Z"/><path d="M529.19,18.12a1.06,1.06,0,0,1,.92,1c0,.31-.54.85-1.54,1.47-.38.69-.69,1.31-1,1.77a34.7,34.7,0,0,0,5.62,5.85,39.82,39.82,0,0,0,6.85,4.7l-5.16,5.16a36.4,36.4,0,0,1-6.54-5.78,33.67,33.67,0,0,1-3.85-4.85,79.31,79.31,0,0,1-13.94,15.71l-5.69-3.93A57.47,57.47,0,0,0,523.8,16.35ZM534.35,51,538,53.31a1.49,1.49,0,0,1,.77,1c0,.69-.61,1.39-1.77,2.08L526.49,75.64c2.47,2.16,4.93,4.31,7.24,6.62l-6,3.93a95.66,95.66,0,0,0-18.4-15.63l4.85-3.93c2.47,1.54,4.85,3.23,7.32,5L529,57H507.86V51h22.87l1.77-.62A3.61,3.61,0,0,1,534.35,51Zm-.93-11.47v5.7H515.1v-5.7Zm41.81-20.1v5.7h-14.7l-1.78,6.62h12.86v41.5h-8a38.59,38.59,0,0,0,13.08,7.47l-5.08,5.47a48.82,48.82,0,0,1-12-9.63l3.31-3.31h-13.4l3.93,2.54a1.6,1.6,0,0,1,.69,1.08c0,.46-.38.77-1.15.85a76.65,76.65,0,0,1-12,8.78L535.19,82a51.49,51.49,0,0,0,13.48-8.7h-7.39V31.75h10.47l1.77-6.62H538.2v-5.7ZM565.3,43.76v-6H547.59v6Zm0,12V49.46H547.59v6.31Zm0,5.7H547.59v5.78H565.3Z"/><path d="M622.43,20.28v6.31H617v59.6h-6.62V72.64C604.88,74.18,597.26,76,587.55,78c-.53,1.07-1,1.54-1.46,1.54-.62,0-.92-.39-1-1.24l-1.77-7.23c2-.16,4.08-.47,6.08-.77V26.59h-5.16V20.28Zm-12,6.31H596v9.32h14.47Zm0,15.09H596v9.63h14.47Zm0,24.87V57H596V69.4C600.87,68.63,605.65,67.71,610.42,66.55ZM645.3,29.6a5.72,5.72,0,0,1,1.85-1.16,2.49,2.49,0,0,1,1.54.69l3.69,3.55a2.24,2.24,0,0,1,.77,1.46c0,.46-.84,1.08-2.46,1.77-2.77,14.47-5.85,25-9.32,31.41a1.38,1.38,0,0,1-.23.39,72.23,72.23,0,0,0,11.4,12.16l-5.39,5.7A83.59,83.59,0,0,1,637.06,74.1a45.59,45.59,0,0,1-14,11.78l-4.77-6.31a38.39,38.39,0,0,0,9.85-5.86,30.78,30.78,0,0,0,5-5.62,31.82,31.82,0,0,1-3-5.85c-2.92-6.16-5-14.94-6.16-26.33h-3.92V29.6ZM635.83,59A11.81,11.81,0,0,0,637,61.24c.15-.38.3-.77.46-1.15,2.15-5.16,4.23-13.25,6.08-24.18H630C631,45.69,632.9,53.39,635.83,59Z"/></svg>