<svg xmlns="http://www.w3.org/2000/svg" viewBox="0 0 1340 100"><defs><style>.a{fill:#005bab;}.a,.b,.c{fill-rule:evenodd;}.b{fill:#00a74d;}.c,.d{fill:#fff;}</style></defs><path class="a" d="M100,50A50,50,0,1,1,50,0a50,50,0,0,1,50,50ZM50,12.75A37.25,37.25,0,1,0,87.25,50,37.24,37.24,0,0,0,50,12.75Z"/><path class="b" d="M36.08,35.85h.16l6.2.06,0-5.56a7.86,7.86,0,0,0,0-.84,6.34,6.34,0,0,0-12.68-.32h0v6.66h6.35Zm27.83.44a6.36,6.36,0,1,0-6.35-6.35,6.35,6.35,0,0,0,6.35,6.35Zm0,.77a9,9,0,0,0-9,8.81H45.08c0-.11,0-.23,0-.34a9,9,0,1,0-18,0c0,.34,0,.67.06,1V72H45V54.81H55V72.63H72.85V47.07c0-.34.06-.67.06-1a9,9,0,0,0-9-9Z"/><path class="c" d="M9.57,50.76H3.25v.88H7.77L3.25,53.85v.89H9.57v-.87H5.08l4.49-2.13v-1ZM4.65,61.7l5.91-2.87-.17-.91-6.54-.56.17.91,1.27.08.35,1.9-1.16.54.17.91Zm4.47-3.07L6.68,59.75,6.4,58.44l2.72.19Zm2.51,4.09-.49-1.49-1.09.38.49,1.49L5.62,64.71l.28.83,4.92-1.61.48,1.45L12.39,65l-.76-2.29Zm1.3,3.66L7.18,69l.36.79,5.76-2.62-.37-.8Zm1.85,3.52c-.44-.74-1.21-.78-2.29-.13l-1.08.65-1.09.66c-1.08.65-1.41,1.35-1,2.08l.45.75.44.73c.44.74,1.21.78,2.3.13l1.08-.65,1.09-.66c1.08-.65,1.39-1.34.95-2.08-.15-.25-.3-.49-.44-.74l-.45-.74Zm-3.6,1.68.68-.4.67-.41c.67-.4,1.24-.43,1.5,0l.27.44.26.44c.26.43,0,.91-.71,1.31l-.67.41-.68.4c-.67.41-1.24.39-1.5,0l-.27-.43c-.08-.15-.17-.3-.26-.44-.26-.44,0-.86.71-1.27Zm6.3,2.52-4.8,4.12.57.67,3.43-3-2,4.63.59.68,4.8-4.13-.57-.66-3.41,2.93,2-4.54-.63-.74Zm3,12,2.7-6-.72-.59L17,83.31l.71.59,1-.75,1.48,1.23-.54,1.16.71.59Zm1.46-5.22-1.09,2.3-1-.82,2.07-1.48Zm1.64,6.23,3-4.32-.73-.5-3.58,5.22L25,89.48l.63-.89-2.11-1.45ZM33.78,91l-1.06,2.42.8.35L36.06,88l-.81-.35-1,2.4-2-.89,1-2.4-.81-.35-2.53,5.8.81.35,1-2.42,2,.89Zm3,3.8,2.77.88.36-1.15-2.76-.88.46-1.45,2.44.78.31-1-2.44-.77.44-1.39,2.67.84.34-1L37.86,88.5l-1.91,6,.83.27Zm9.58,1.9-.74-6.52L44.71,90,42,96l.91.15L43.42,95l1.9.3.13,1.28.91.14ZM45,91.47l.25,2.78L43.81,94,45,91.47Zm4.58,4.13V90.37h-.88V96.7h3.44V95.6Zm4.7-5.38-1.56.16.12,1.2,1.56-.16.52,5.1.87-.09-.51-5.1,1.52-.15L56.63,90l-2.4.24Zm7.93,2.28.66,2.5.85-.22-1.61-6.12-.85.22.65,2.46-2.15.56-.65-2.45-.85.22,1.61,6.12.85-.22L60,93.07l2.15-.57ZM66.29,87l2.5,5.81.8-.34-2.5-5.82-.8.35Zm2.41-1.11L72,91.34l.74-.45L70.38,87l4.23,2.73.77-.47L72.1,83.87l-.74.45,2.32,3.85-4.14-2.75-.84.51Zm8.65-2.81-1.21,1c-.18.15-.43,0-.66-.34s-.48-.64-.28-.81l.53-.42.51-.41c.21-.16.45,0,.73.33l.69-.54a3.28,3.28,0,0,0-1-1,.7.7,0,0,0-.79.1c-.34.28-.62.49-.82.65l-.46.37c-.71.56-.73,1.25-.08,2.07a2.76,2.76,0,0,0,.17.22l.32.39c.59.75,1,.78,1.62.32s.83-.67,1.18-1,.44-.11.67.18.64.91.43,1.08-.44.34-.55.44l-.58.45c-.19.16-.35.06-.58-.24L77,85.77l-.69.54c.15.22.29.42.42.58.56.68,1,.7,1.45.38a7.55,7.55,0,0,0,.81-.65l.81-.64c.5-.4.44-1-.17-1.75l-.32-.39-.27-.35c-.62-.78-1.12-.85-1.72-.37Zm.55-3.87,3.1,3c1,.93,1.8,1,2.5.3l.33-.33c.13-.14.23-.25.31-.32.71-.74.59-1.58-.38-2.51l-3.1-3-.61.63,3,2.84c.52.5.62.93.29,1.27l-.28.29-.28.29c-.33.33-.75.25-1.27-.25l-3-2.84-.61.63ZM87.44,75l1.39,1,.5-.73-1.39-1A1.7,1.7,0,0,0,87,74a2.08,2.08,0,0,0-.88-1l-.33-.22-.34-.23c-.87-.6-1.51-.62-1.9,0l-.31.45-1.35,2,5.23,3.56.49-.72-1.9-1.3.85-1.25a.88.88,0,0,1,.41-.34.56.56,0,0,1,.5.11ZM84.2,73.67l.2-.29c.13-.2.42-.14.87.16s.6.55.47.75l-.2.29-.85,1.25-1.34-.91.85-1.25Zm8.45-4.28L86.23,68l-.42.81L90.6,73.3l.43-.82-1-.86.89-1.7,1.25.29.43-.82Zm-5.41-.34,2.47.58-.59,1.13-1.88-1.71Zm.33-3.88,6,2.11.29-.82L89.56,65l5-.57.29-.84-6-2.12-.29.83,4.23,1.5-4.94.5-.33.92Zm4-9.5c-1-.18-1.54.15-1.7,1-.06.28-.11.56-.16.85s-.11.56-.16.85c-.16.85.38,1.38,1.62,1.61l1.25.24,1.24.23c1.25.23,1.95-.08,2.11-.92,0-.29.11-.57.16-.86s.11-.56.16-.85c.16-.86-.3-1.39-1.37-1.59-.35-.06-.39-.08-.74-.15l-.16.87c.19,0,.37.09.57.13.59.11.7.4.61.91,0,.18-.07.35-.1.51L94.8,59c-.1.5-.68.63-1.45.49l-.78-.15-.77-.14c-.76-.14-1.2-.46-1.11-1l.09-.5.09-.51a.69.69,0,0,1,.9-.61c.17,0,.09,0,.27,0l.16-.87-.64-.11Zm5.19-2.47V50.3H95.6v2.9H94.14V50.65H93V53.2H91.53V50.4h-1.1v3.68h6.32V53.2Z"/><path class="d" d="M85.89,27.22l-.65-.8,1-.83.87,1.07-.86.69a.14.14,0,0,1-.17,0,.45.45,0,0,1-.2-.17ZM83,23.69,82.42,23l1-.85.8,1-.89.72a.16.16,0,0,1-.17,0,.77.77,0,0,1-.21-.18Zm-5.13-2.17.7.86a1.45,1.45,0,0,0,.73.53.73.73,0,0,0,.66-.18L82.11,21a.5.5,0,0,0,.18-.36,1.43,1.43,0,0,0-.07-.55,1,1,0,0,0,.55.16.76.76,0,0,0,.49-.18l2.47-2-2.24-2.79-7.22,5.85.82,1,.77-.62Zm3-2.42.22.27a2.31,2.31,0,0,1,.28.4c0,.1,0,.17,0,.21l-2,1.61a.32.32,0,0,1-.16.06.15.15,0,0,1-.12-.07l-.51-.64,2.27-1.84Zm2.77-2.24.62.78L82.3,19.19a.17.17,0,0,1-.18,0,.53.53,0,0,1-.2-.18l-.4-.49,2.09-1.7Zm2.85,2.71L86,19.43a.9.9,0,0,1-.28-.16,2.38,2.38,0,0,1-.3-.32l-.19-.24-.69.55.58.72a2.21,2.21,0,0,0,.46.46,7.31,7.31,0,0,0,1.32.29L88.67,23l.52.66a8.36,8.36,0,0,0,0,1.43,2,2,0,0,0,.32.53l.64.81.69-.55-.25-.32a1.85,1.85,0,0,1-.25-.37,1,1,0,0,1-.09-.31l0-.47.1-.81-3.08-3.9-.82-.09Zm-5.59,6.81,1.29,1.68h0v0a1.44,1.44,0,0,0,.59.46.88.88,0,0,0,.62,0l.92-.36-.53,1.16a1.24,1.24,0,0,0-.08.48.7.7,0,0,0,.14.38l.63.77.64-.52-.23-.28a.39.39,0,0,1-.09-.22.31.31,0,0,1,.06-.22c.29-1,.26-.76-.23-1.66l.7-.3.39.48a1.52,1.52,0,0,0,.58.49.47.47,0,0,0,.49-.09l1.81-1.47-2.5-3.1-2.26,1.84.58.72-1.49.62a.68.68,0,0,1-.27,0,.24.24,0,0,1-.15-.08l-.44-.6h0l-.18-.23a.32.32,0,0,1-.09-.2.39.39,0,0,1,.06-.22c.29-.86.37-.64-.1-1.44l.67-.28.39.5a1.35,1.35,0,0,0,.56.45.47.47,0,0,0,.48-.09l1.85-1.5-2.39-3L81,22.48l.51.63-1.44.62a.68.68,0,0,1-.25.05.19.19,0,0,1-.15-.08l-.29-.35-.61.49.57.72a1.42,1.42,0,0,0,.57.44.94.94,0,0,0,.62,0l.62-.25-.36.8a1.08,1.08,0,0,0-.07.45.63.63,0,0,0,.14.37h0Zm3.52-6.46,5.1,6.44-.63.5-5.1-6.44.63-.5ZM36.32,3.44,35.9,5.85a1.07,1.07,0,0,1-.12.36.38.38,0,0,1-.21.15l-.52.09.18,1.08.91-.16,1,6.11,1.35-.22L37.26,5.78l.54-2.59-1.48.25Zm4.29-.25.14.75,2-.32.13.77-2.41.39.15.8L43,5.19l.13.76-2,.32.13.75,2-.32.15.8-2.17.36.15.8,2.16-.36.13.73-2.41.39.14.8,2.41-.39.08.44L45.43,10l-.08-.44,2.91-.48-.14-.8-2.92.48-.12-.73,2.67-.43-.14-.8-2.67.43-.14-.79,1.33-.23A1.79,1.79,0,0,0,47,5.92a.54.54,0,0,0,.21-.55l-.14-.84.76-.13-.14-.8-.77.13L46.65,2.2l-2.54.42L44,2.05l-1.53.25.1.57-2,.32Zm3.64.18,1.2-.19.14.76-1.21.2-.13-.77ZM38.76,7.88l-.13,0,.12.67.33-.05h0c.09,0,.16.08.18.25.17.79.37,1.58.52,2.38a.48.48,0,0,1,0,.28.43.43,0,0,1-.28.19l-.24.05.16.9.71-.13a1,1,0,0,0,.56-.28,4.23,4.23,0,0,0,.36-.81,3.87,3.87,0,0,0,1.82.67l6.31-1L49,10.06,43.59,11c-.54.09-2.92-.7-2.92-1.1-.12-1-.37-2-.86-2h0a.5.5,0,0,0,.34-.51l-.58-3.47a.37.37,0,0,0-.41-.31l-1.07.16-.24,0,.14.9.25,0c.16,0,.34,0,.37.2l.48,2.75c0,.15-.13.3-.33.33Zm5.76-2.94,1.21-.2.1.6a.11.11,0,0,1-.06.14.67.67,0,0,1-.23.08l-.88.14-.14-.76ZM23,14.94l7.77-4.78a1.41,1.41,0,0,0,.56-.56A.64.64,0,0,0,31.29,9l-1.66-2.7-10,6.14,4.42,7.2a.78.78,0,0,0,.56.41,1.41,1.41,0,0,0,.8-.24l4.2-2.59-.55-.9-3.47,2.14a.51.51,0,0,1-.25.09.18.18,0,0,1-.16-.09l-1-1.63,5.23-3.21,3.08,1.24a1.1,1.1,0,0,0,1.19-.1l1.56-.86-.6-.83-1,.56a.67.67,0,0,1-.26.09.35.35,0,0,1-.22-.08l-2.28-.9,2.42-1.49-.52-.86-3.07,1.88L29,12l-1.42.87.72.29L23.65,16l-.61-1Zm-1.53-2.48L28.8,8l.89,1.44a.19.19,0,0,1,0,.18.59.59,0,0,1-.18.17l-7,4.31-1-1.62Zm-3.66,5.48-7,8.87.83.65,3-3.83,1.17.92-3,3.76.81.64,3-3.76,1.1.87-3.23,4.09.85.68,7.46-9.44L22,20.72,18.7,24.85,17.61,24l3-3.81-.81-.64-3,3.8-1.16-.92,3-3.83-.82-.65ZM9.94,24.08l.05.56a.63.63,0,0,1-.05.35,1.72,1.72,0,0,1-.24.39l-.58.73.6.47,1-1.23a2.54,2.54,0,0,0,.42-.7,1.18,1.18,0,0,0,.06-.64V22.89l1.41-1.77L14.25,19l1.09-.23a1.35,1.35,0,0,0,.6-.21,2.63,2.63,0,0,0,.6-.57l1-1.22-.59-.48-.58.73a1.4,1.4,0,0,1-.33.32.76.76,0,0,1-.33.13l-.56.07-1,0-2.24,2.8h0l-.13.17-.14.18h0l-2,2.46.25.95ZM60.42,11.41l.19.77a1,1,0,0,0,.89.82l1.84.34.15-.83-1.23-.23a.3.3,0,0,1-.16-.08A.37.37,0,0,1,62,12l0-.32-1.56-.29ZM62.25,9.9a1.13,1.13,0,0,1-.35.32.55.55,0,0,1-.35.06l-1.23-.23-.16.84,1.84.35a1.64,1.64,0,0,0,.44,0,.93.93,0,0,0,.4-.12,1.35,1.35,0,0,0,.43-.32,7.4,7.4,0,0,0,.49-.64L62.25,9.9Zm-7,.56a1.32,1.32,0,0,1-.38.32.67.67,0,0,1-.39.06l-.82-.16-.16.83,1.44.28a2.54,2.54,0,0,0,.47,0,2.26,2.26,0,0,0,.45-.1,1.47,1.47,0,0,0,.43-.32,4.86,4.86,0,0,0,.53-.64l-1.57-.29Zm-.73-2,.25.76a1.21,1.21,0,0,0,.37.58,1.67,1.67,0,0,0,.69.29l1.34.25.16-.85-.79-.15a.51.51,0,0,1-.26-.1.37.37,0,0,1-.14-.18l-.1-.32-1.52-.28ZM60,7.65,62.08,8,62,8.42a.14.14,0,0,1-.11.11.73.73,0,0,1-.25,0L59.91,8.2l.1-.55Zm.24-1.25,2.06.38-.09.51L60.15,6.9l.1-.5ZM55,4.55l-.15.84,4,.74-.09.51-4.28-.81-.14.74,4.28.81-.1.55-4-.74L54.31,8l4,.75-.49,2.68a.12.12,0,0,1-.1.11.52.52,0,0,1-.22,0l-.56-.11-.15.84.9.17a2.19,2.19,0,0,0,1.07,0,.71.71,0,0,0,.47-.56L59.75,9,62,9.45c.86.16,1.33,0,1.42-.47l.12-.67.89.16.14-.75-.89-.16.25-1.34L60.4,5.56l.09-.5-1.44-.27-.09.5-4-.74Zm3.71-1.74-.1.59-5.35-1-1.45,7.84a.13.13,0,0,1-.1.11h-.22L51,10.27l-.18.92.73.13a1.75,1.75,0,0,0,1.14-.07,1,1,0,0,0,.52-.74L54.49,3.6l10.58,2,.17-.92-5-.94.11-.59-1.67-.31ZM74.07,16.05l-.59,2.39a1,1,0,0,0,0,.69,1.33,1.33,0,0,0,.52.57l.9.61.58-.88-.39-.26A.4.4,0,0,1,75,19a.58.58,0,0,1,0-.29L75.42,17l-1.35-.9Zm-4.26-2.84L68.5,14.38a.78.78,0,0,1-.28.12.24.24,0,0,1-.19,0l-.61-.41-.56.84,1,.69a1.56,1.56,0,0,0,.76.27,1.13,1.13,0,0,0,.68-.26l1.8-1.52-1.32-.88Zm7,.26-4.2-2.8,1.07-1.6,4.43,3-.89,1.34a.32.32,0,0,1-.2.15.25.25,0,0,1-.21,0ZM72.88,7.39l-2.13,3.2,2.67,1.78-.63.94-3.26-2.18-.59.87,3.27,2.18-2.13,3.19,1.35.91,2.13-3.2,3.33,2.22.58-.87-3.33-2.22.63-.94,2.1,1.41c.63.41,1.09.38,1.4-.08l1.67-2.5L72.88,7.39ZM71.17,5.93l-1.66,1a.81.81,0,0,1-.3.1A.28.28,0,0,1,69,7l-.52-.35-.61.92.8.53L64.8,13.86l1.26.83L70.56,8l2-1.13-1.35-.9Z"/><path d="M174.91,80.62H168L157.74,42.28,147.5,80.62h-6.93L126.41,30h7.39L144,68.84,154.36,30h6.77l10.4,38.81L181.69,30h7.39Z"/><path d="M216.57,80.7a16.37,16.37,0,0,1-1.15-4.24,16.19,16.19,0,0,1-11.55,4.78,12.62,12.62,0,0,1-8.09-2.47,8.34,8.34,0,0,1-3.23-6.93,10.47,10.47,0,0,1,5.77-9.77c3.54-1.93,9.17-3.08,16.79-3.39q-.69-6.24-6.93-6.24c-3.16,0-5.62,1.54-7.47,4.54l-6.55-3c3-5.39,7.7-8.08,14-8.08,4.62,0,8.24,1.38,10.7,4.08,2.23,2.54,3.39,6.08,3.39,10.7V75.15a15.45,15.45,0,0,0,1.23,5.55Zm-16.78-8.86c0,1.93,1.3,2.85,4.08,2.85a11,11,0,0,0,7.31-2.62,11.2,11.2,0,0,0,3.93-6.93C204.87,65.38,199.79,67.61,199.79,71.84Z"/><path d="M236.59,63.45V80.7h-6.93V46.59h6.93v4.16a11.47,11.47,0,0,1,5.16-3.31,26.58,26.58,0,0,1,6.7-.85v6.77C240.52,53.67,236.59,57,236.59,63.45Z"/><path d="M265.77,52.52v28.1h-7V52.52h-6.86V45.9h6.86V40q0-9.93,9.24-9.93h6.69v6.62h-5.46c-1.54,0-2.54.23-2.85.7s-.62,1.46-.62,3V45.9h8.93v6.62Z"/><path d="M303.35,80.7a16.83,16.83,0,0,1-1.16-4.24,16.17,16.17,0,0,1-11.55,4.78,12.59,12.59,0,0,1-8.08-2.47,8.31,8.31,0,0,1-3.23-6.93,10.47,10.47,0,0,1,5.77-9.77c3.54-1.93,9.16-3.08,16.78-3.39q-.69-6.24-6.93-6.24c-3.15,0-5.62,1.54-7.46,4.54l-6.55-3c3-5.39,7.7-8.08,14-8.08,4.62,0,8.24,1.38,10.71,4.08,2.23,2.54,3.39,6.08,3.39,10.7V75.15a15.45,15.45,0,0,0,1.23,5.55Zm-16.79-8.86c0,1.93,1.31,2.85,4.08,2.85a11.28,11.28,0,0,0,11.24-9.55C291.64,65.38,286.56,67.61,286.56,71.84Z"/><path d="M323.37,63.45V80.7h-6.93V46.59h6.93v4.16a11.37,11.37,0,0,1,5.16-3.31,26.56,26.56,0,0,1,6.69-.85v6.77C327.29,53.67,323.37,57,323.37,63.45Z"/><path d="M345.7,37V29.42h7.08V37Zm0,43.58V46.67h7.08v34Z"/><path d="M389.2,80.62V61.22c0-5.78-2.39-8.7-7.16-8.7-4,0-7.32,2-9.93,5.85V80.62h-7V46.43h7v3.39A15.6,15.6,0,0,1,382.5,45.9c9.09,0,13.71,5.15,13.71,15.32v19.4Z"/><path d="M422.46,21.57h19.87V81.16A5.72,5.72,0,0,1,438.1,87a22.63,22.63,0,0,1-6.63,1.08l-2.38-6.31,4.85-.16A2,2,0,0,0,436,79.31V64h-7.63c-.23,2.85-.54,5.54-.84,8.08A78.14,78.14,0,0,1,424,87.47l-6.31-3.31a60.17,60.17,0,0,0,3.54-13.32,115.59,115.59,0,0,0,1.23-17.09V21.57ZM436,58.29V45.36h-7.24v8.39c0,1.54-.08,3.08-.08,4.54Zm0-18.63v-12h-7.24v12ZM478.6,27.49c-7,.93-15,1.85-24,2.62V46.59c0,7.39-.16,13.32-.39,17.78a79,79,0,0,1-2.38,14.71,70.38,70.38,0,0,1-3.24,9.32L443,84.47c1-2.46,1.77-4.31,2.23-5.77a61.91,61.91,0,0,0,2.23-9.94,195.2,195.2,0,0,0,.93-22.17V22.8L453,24.34c4.16-.31,8.09-.77,11.94-1.23a112.76,112.76,0,0,0,14.63-2.7l4.69,5a2.3,2.3,0,0,1,.77,1.61c0,.46-.23.62-.61.62l-1.93-.54A32.71,32.71,0,0,0,478.6,27.49Zm2.77,12.32c-2,.47-4.08.85-6.24,1.24a121.62,121.62,0,0,0,.62,12.7,72.72,72.72,0,0,0,7.16-5.08l4.39,4.39a1.5,1.5,0,0,1,.46,1c0,.46-.62.61-1.85.61-3.08,1.7-6.16,3.24-9.39,4.7a34.52,34.52,0,0,0,.84,3.85,36.36,36.36,0,0,0,5.47,12.7,41.47,41.47,0,0,0,6.39,7.93l-6,3.93c-5.77-7.16-9.54-14.47-11.31-21.87-1.54-6.08-2.39-14.09-2.54-23.94-1.54.31-3.16.54-4.78.77V75.69c2.7-.69,5.31-1.46,7.86-2.38v5.77c-3.39,1.39-8.63,3.24-15.71,5.7-.46.77-1,1.15-1.47,1.15s-.77-.38-.84-1.07l-1.54-6.7c1.92-.31,3.85-.62,5.7-1.08V34.81l4.62,2.31c2.77-.31,5.39-.69,7.93-1.16A59.44,59.44,0,0,0,481.44,33l4.39,4.77a2.19,2.19,0,0,1,.7,1.54.54.54,0,0,1-.62.62l-1.77-.54A17.48,17.48,0,0,0,481.37,39.81Z"/><path d="M521.18,22.34c.77.3,1.15.69,1.15,1.07,0,.77-.69,1.39-2.08,1.77-1.92,4.39-3.77,8.32-5.46,11.71v51.2h-7.16V49.21c-2.16,3.31-4.62,6.77-7.24,10.31l-5.47-5.46A112.79,112.79,0,0,0,506,37.81a123.54,123.54,0,0,0,8.47-18.63Zm17-1.08c1.08.15,1.62.54,1.62,1.23s-.54,1.39-1.54,2.16A3,3,0,0,0,537,27.34V47.28a81.14,81.14,0,0,0,7.54-3.23,83.27,83.27,0,0,0,14.48-9.55l5.39,5.7a4.39,4.39,0,0,1,.69,1.15c-.23.47-.46.7-.69.7l-1.85-.31a4.87,4.87,0,0,0-1.92.77A87.79,87.79,0,0,1,537,55.21V73.92a8.46,8.46,0,0,0,1.15,4.93c.7.92,2.24,1.39,4.62,1.39h8.09a6.52,6.52,0,0,0,4.77-1.54c1.08-.93,2-3.85,2.77-8.7l6.93,3c-1.23,6.16-2.61,10-4.31,11.78a7.12,7.12,0,0,1-5.31,2.39H539.81a10,10,0,0,1-7.7-3.08c-1.54-2-2.23-4.7-2.23-8.32V20.1Z"/><path d="M632.75,49.9V61.6h8.7v6h-68.3v-6h9.32V49.9ZM611.27,18.79c1.23.16,1.92.47,1.92,1s-.54,1-1.54,1.78V24h29.18V37.81H633.9V29.73H580.7v8.08h-6.93V24h30.64V18.25Zm27.79,52.13v5.7H611.34v5.16a6.62,6.62,0,0,1-2.61,5.62c-1.47,1.23-5.09,1.84-10.94,1.84l-2.69-6.62h6.16c2.15,0,3.31-.69,3.46-2.08V76.62H575.85v-5.7Zm-48.27-36c.61.3,1,.53,1,.84a1.48,1.48,0,0,1-.85,1.23,46.8,46.8,0,0,1-8.16,10.48l-5.08-3a48.91,48.91,0,0,0,8.7-11.7Zm6.46,26.71V55.29h-8.16V61.6Zm4.16-30.18c.77.16,1.23.46,1.23,1a2.49,2.49,0,0,1-1.15,1.77,2.49,2.49,0,0,0-.93,2.16V37a9.66,9.66,0,0,0,.7,4.16c.46.85,1.54,1.23,3.15,1.23h6.93a12.7,12.7,0,0,0,5.16-.77c1.23-.46,2.24-1.77,3-4.08L624.9,40q-1.86,4.85-4.39,6.23A11.32,11.32,0,0,1,615,47.44H602.34a7,7,0,0,1-5.78-2.39c-1.23-1.54-1.77-3.7-1.77-6.62V30.65Zm9.93,30.18V55.29h-8.08V61.6ZM616.19,37l-4.54,3.85a46.34,46.34,0,0,0-6.93-6.31L609,31A55.77,55.77,0,0,1,616.19,37Zm9.94,24.64V55.29h-8.78V61.6Zm12-17.47-5.39,3.61a74,74,0,0,0-10.86-12.32l4.24-3.31A80.56,80.56,0,0,1,638.14,44.13Z"/><path d="M661,30.34V17.72l7.16.84c.77.16,1.23.46,1.23.93s-.61,1.15-1.77,1.84v9H676V37h-8.39V53.52c3.24-1.39,6.39-2.93,9.63-4.54V55.6l-9.63,4.62v20c0,2.92-.92,5.15-2.62,6.54-1.46,1.39-5.08,2.16-10.93,2.16l-2.69-6.55h6.16c2.15,0,3.31-1.15,3.46-3.31V63.37l-6.93,3.31c-.77,1.7-1.46,2.47-2.08,2.47-.46,0-.84-.39-1.15-1.31L648.38,61c4.24-1.39,8.47-2.93,12.63-4.62V37H649.23V30.34ZM707.9,40.81V80.24a2.15,2.15,0,0,0,2.39,2.38,2.46,2.46,0,0,0,2.38-1.69c.39-.92.7-4.16.93-9.7l6.62,1.23c-.46,6.93-1.39,11.47-2.85,13.7-1.15,1.7-3.54,2.55-7.08,2.55-4.31-.16-6.93-.93-7.86-2.39a7.24,7.24,0,0,1-1.15-4.24V47.44H690.19V55.6A56.59,56.59,0,0,1,687.34,74c-1.38,4.08-4,9.08-8,15.24l-6.63-3.31c3.85-5.08,6.55-9.62,7.93-13.62a51.91,51.91,0,0,0,2.93-16.71V40.81Zm-9-22.32c1.16.15,1.77.46,1.77,1,0,.38-.38,1-1.15,1.84v8.09h15v6.31h-37V29.42h15V18Z"/><path d="M740.4,53.21c-2.77,7.47-5.62,14.71-8.4,21.64l.54,1.77c0,.61-.38.92-1.15.92l-6.93-2.39A160.1,160.1,0,0,0,734.7,49.59ZM740.71,37l-5.16,4.47a73.53,73.53,0,0,0-9-12.32l4.85-4.46A83.48,83.48,0,0,1,740.71,37Zm10.62,7.55c.46.15.77.39.77.85s-.38.92-1.15,1.54c-.31,1.07-.7,2.08-1,3h14.79v5.39h-7.47c-.08,2.93-.23,5.47-.46,7.55h9.47v5.69H757A29.49,29.49,0,0,0,764.42,76l-4.77,5.16a46.88,46.88,0,0,1-5.55-7.7A25.83,25.83,0,0,1,750,79.85a31.4,31.4,0,0,1-9.93,7.32L735,82.08a23.8,23.8,0,0,0,9.47-5.31,17.83,17.83,0,0,0,4.69-7.08l.47-1.16h-9.86V62.84H751a69.33,69.33,0,0,0,.61-7.55h-3.77c-1,2.16-2.08,4.16-3.16,6l-5.77-2.08a25.11,25.11,0,0,0,3.77-6.39A47.76,47.76,0,0,0,745.79,43Zm14.55-19.33a1.63,1.63,0,0,1,.39.93c0,.46-.62.61-1.85.61-4.77,2.16-9.7,4.32-14.94,6.32a6.86,6.86,0,0,0,.77,2.62c.54.92,1.77,1.3,3.7,1.3H756a6.21,6.21,0,0,0,3.62-.84c.84-.46,1.54-1.85,2.08-4.31l5.77,2.69c-.92,3.39-2.08,5.62-3.39,6.55a6.4,6.4,0,0,1-4.16,1.3h-8.39a7.82,7.82,0,0,1-6.31-2.54C744,38.27,743.4,36,743.4,33V18.87l7.08.85c.85.07,1.31.38,1.31,1s-.46,1.23-1.31,1.92a2.32,2.32,0,0,0-1.07,2.24V28A111.66,111.66,0,0,0,762,21.33Zm25.18-3.92,3.39,2.15q.69.46.69.93c0,.61-.54,1.15-1.54,1.77l-8.7,10.55c1.7,1.07,3.31,2.23,4.85,3.31l-3.46,3.62h4.62l1.54-.31a3.32,3.32,0,0,1,1.61.54L797.45,46q.69.47.69.93c0,.61-.53,1.15-1.54,1.77l-3.85,11.16L787.29,58l2.92-8.39h-5.93V62.22h9.94v6h-9.94V79.31a72.44,72.44,0,0,0,13.56,2.47l-4.55,6.31a39.49,39.49,0,0,1-13.62-4.16,30,30,0,0,1-8.4-6.23,49.78,49.78,0,0,1-5,10.39l-5.39-3.62a39.07,39.07,0,0,0,5.7-11.78,115.38,115.38,0,0,0,3-15.63l5.7,1.31c.77.23,1.23.54,1.23.85s-.46,1-1.23,1.46c-.85,4.77-1.7,8.7-2.47,11.86a30.73,30.73,0,0,0,5.47,4.08v-27h-11.4v-6h17.4a113,113,0,0,0-14.09-8.17l4.47-4.23c1.85.92,3.62,1.77,5.31,2.69l5.16-7.16H769.58V21.33H787.9l1.54-.61A3.35,3.35,0,0,1,791.06,21.26Z"/><path d="M843.88,22c.77.38,1.16.77,1.16,1.08,0,.61-.54,1.07-1.46,1.54l-7.78,9.62h29.72V76.62h7.24v7.23H803.54V76.62h7.24V34.27h16.93l10.71-15.09ZM827,76.62v-36h-9v36Zm15.32,0v-36h-8.7v36Zm15.94,0v-36H849v36Z"/><path d="M919.5,32.65c.69.39,1.08.7,1.08,1,0,.62-.47,1.08-1.24,1.47l-1,1.23H926V59.83h-7.55v5.39h30.72v5.7H922.81A54.53,54.53,0,0,0,933.9,76a125.7,125.7,0,0,0,17,4.24l-6.62,6A96.11,96.11,0,0,1,930,80.78a56.52,56.52,0,0,1-11.55-7.55V88.09h-6.31V73.69a65.43,65.43,0,0,1-12.32,7.7,80.83,80.83,0,0,1-15.33,5.16l-5.38-5.39a122.13,122.13,0,0,0,18.7-5.39,57.13,57.13,0,0,0,9.4-4.85h-26v-5.7h31V59.83h-6.86V36.35h6.47l3.16-6Zm-22.64.23c.54.31.85.54.85.77,0,.47-.31.85-.93,1.16l-7,7.93c1,.77,1.92,1.54,2.77,2.23L898,38.12l4.39,2.77a1.36,1.36,0,0,1,.69,1.16c0,.46-.39.77-1.16.92L890.39,55.21q3.81-.23,7.16-.69c-.3-1.08-.69-2.23-1.07-3.47l4.85-1.15A63.08,63.08,0,0,1,904.64,61l-5.47,1.23c-.15-1.08-.31-2.16-.54-3.39L882.39,61c-.62.84-1.16,1.23-1.54,1.23s-.77-.39-.85-1.16l-.31-5.46c1.46,0,2.93,0,4.31-.08l5.55-6.85c-2.7-2.16-5.62-4.24-8.7-6.32l3-3.92c.77.54,1.46,1.08,2.23,1.54l6.78-9ZM901,23.11V18l5.85.39c1.08.08,1.69.31,1.69.77s-.46,1.08-1.23,1.85v2.08H923V18.25l6.09.54c1.15.16,1.77.47,1.77,1,0,.31-.47.85-1.24,1.54v1.78h19.87V28.8H929.58v3.31H923V28.8H907.33v3.62H901V28.8H880.85V23.11Zm19.56,22.55V41.12h-9.94v4.54Zm0,4.55h-9.94V55h9.94Zm20.48-17.63c.54.3.84.53.84.77,0,.46-.3.84-.92,1.15l-5.85,7.39c1,.93,1.92,1.77,2.85,2.62l4.54-5.77,4.39,2.77a1.36,1.36,0,0,1,.69,1.15c0,.46-.38.77-1.15.93L936,55c2.62-.15,5-.38,7.32-.69-.46-1.23-.92-2.47-1.39-3.85l4.85-1.16a56.75,56.75,0,0,1,3.85,11.4l-5.39,1.23a31.92,31.92,0,0,0-.69-3.39l-14.94,2.16c-.61.85-1.15,1.23-1.54,1.23s-.77-.38-.84-1.15l-.31-5.47c1,0,1.92,0,2.77-.08l5.39-6.93c-2.62-2.31-5.39-4.54-8.47-6.85l3-3.93c.62.54,1.31,1,1.93,1.47l5.62-8.32Z"/><path d="M969.24,26.65c.62.15.93.46.93,1s-.54,1.31-1.47,2.08c-.31,2.31-.69,4.39-1.08,6.31h5.86V18.87l6.08.54c1.15.15,1.77.46,1.77,1,0,.31-.46.85-1.23,1.46V36H987v6H980.1V57.29q4.38-1,8.78-2.31v6.93l-8.78,2.16v24h-6.62V65.68l-9.32,2.24c-.77,1.61-1.46,2.38-2.08,2.38-.46,0-.85-.38-1.15-1.31l-2.78-7.08c5.16-.85,10.24-1.85,15.33-3.08V42.05h-7.09c-.92,4-1.85,7.62-2.85,10.85l-6.62-2.46a61.08,61.08,0,0,0,3.16-9.93,147.93,147.93,0,0,0,2.62-15.63Zm35.19-5.55c.61.31.92.62.92,1.08,0,.31-.84.62-2.38.93-.85,3.54-1.78,6.69-2.7,9.62h26.18c0,21.64-.54,35.26-1.54,40.81-.62,5.54-1.93,9.24-4,11.24-2.16,2.15-5.86,3.31-11,3.31l-3.32-6.93c5.39,0,8.55-.62,9.63-1.92.92-1,1.69-3.39,2.23-7.17.77-4.08,1.23-15.16,1.39-33.33h-2.08a94.66,94.66,0,0,1-5.16,22,68.41,68.41,0,0,1-8.78,14.78A70.37,70.37,0,0,1,994,85.39l-5.7-3.61A55,55,0,0,0,997,74a53.92,53.92,0,0,0,10-15.25c2.23-5.23,3.85-11.85,4.85-20h-4.39A69.8,69.8,0,0,1,1004,53.52a53.3,53.3,0,0,1-6,10.62,48,48,0,0,1-6.78,7.09l-5.7-3.62a35.72,35.72,0,0,0,6-5.54,39.25,39.25,0,0,0,6.85-10.71,55.53,55.53,0,0,0,3.16-12.62H998l-.16.3a75.24,75.24,0,0,1-6.31,11.4l-6-3.85a59.16,59.16,0,0,0,7.17-11.94,84.26,84.26,0,0,0,5.15-15.78Z"/><path d="M1055.17,21.18c.7.31,1.08.62,1.08,1,0,.77-.61,1.39-1.85,1.85-1.54,4.16-3.08,7.78-4.46,11V88.09H1043V48.82c-1.7,2.85-3.47,5.78-5.47,8.86l-5.08-5.09a112.83,112.83,0,0,0,9.39-15.93A170.92,170.92,0,0,0,1049,18.25Zm19.71,6.16c0-2.62-.15-5.54-.3-8.78l7.39.62c.61,0,1,.23,1,.61s-.54,1.24-1.46,2.39v5.16h20.71v6.31h-20.71v6h18.32V63.14h-18.56c-.46,4.62-1.23,8.24-2.46,10.86a18.36,18.36,0,0,1-1.31,2.46,42.06,42.06,0,0,0,5.85,1.77c5.39,1.39,12.17,2,20.41,2l-3.93,6.93A64.39,64.39,0,0,1,1079.2,84a60.87,60.87,0,0,1-6.63-2.54c-.46.31-.84.54-1.15.77a61.3,61.3,0,0,1-15.17,5.85l-4.85-6.93q8.77-.69,14.32-3.46a.28.28,0,0,0,.16-.08c-.16-.08-.31-.16-.31-.23a43.42,43.42,0,0,1-9.32-9.17l5.08-3a36.23,36.23,0,0,0,9.24,8.16.41.41,0,0,0,.31.16,8.62,8.62,0,0,0,1.23-1.62c1.08-1.62,1.85-4.54,2.39-8.78h-17.71V39.66h18.09v-6h-20.17V27.34Zm0,18.32h-11.47v11.4h11.47Zm18.33,0h-11.7v11.4h11.7Z"/><path d="M1121.47,22.18h53.59V79.93c0,3.39-2,5.62-5.85,6.62a36.22,36.22,0,0,1-8.93,1.23l-2.7-6.93,7.39-.15c2.08-.08,3.16-1,3.16-2.85V64.3H1151V84.78H1144V64.3h-17c-.3,1.69-.61,3.23-.92,4.77a65.33,65.33,0,0,1-7,18.4l-6.93-3.62a51.09,51.09,0,0,0,6.93-16,90.32,90.32,0,0,0,2.39-20.71v-25ZM1144,58.29v-12H1128.4v.85a102.46,102.46,0,0,1-.62,11.16Zm0-18V28.49H1128.4V40.28Zm6.93,0h17.17V28.49H1151Zm0,18h17.17v-12H1151Z"/><path d="M1200.32,29.73V18l7.39.85c.85.15,1.31.46,1.31.92,0,.62-.62,1.31-1.85,2.08v7.86h8.47v6.62h-8.47v14.7c3.24-1.46,6.39-3.08,9.63-4.77V52.9l-9.63,4.85V79.31c0,3.08-.85,5.31-2.39,6.78-1.38,1.54-4.85,2.31-10.24,2.31l-2.69-6.93h5.39c1.85,0,2.92-1.08,3.08-3.31V61.22l-6,3.08c-.84,1.61-1.54,2.38-2.15,2.38s-.85-.38-1.08-1.23l-2.54-6.85c4-1.39,7.93-2.85,11.78-4.47V36.35h-10.55V29.73Zm53.82,22.86v35.5h-6.93V84.47h-22.56v3.31h-6.93V52.59Zm-27.87-33.33c.92.15,1.38.53,1.38,1.15a2.89,2.89,0,0,1-1.31,2,2.79,2.79,0,0,0-1.07,2.47v3.23a47.09,47.09,0,0,0,9.08-2.16,67.23,67.23,0,0,0,13.78-6.16l4.62,4.62a1.4,1.4,0,0,1,.46,1.08c0,.46-.3.62-.92.62l-1.77-.39a6.34,6.34,0,0,0-2.31.62,87.24,87.24,0,0,1-22.94,8.24v.54a7.76,7.76,0,0,0,1,4.46c.61.85,1.92,1.23,4.08,1.23h14.78a5.63,5.63,0,0,0,3.77-1.07c.93-.62,1.62-2.54,2.24-5.78l6.31,2.7c-1,4.54-2.16,7.47-3.47,8.7a5.91,5.91,0,0,1-4.38,1.77h-21.95a8.75,8.75,0,0,1-6.93-2.77c-1.38-1.7-2.08-4.16-2.08-7.4V18.25Zm20.94,46.27V58.6h-22.56v6.93Zm0,12.94V71.23h-22.56v7.24Z"/><path d="M1305.58,21.87V44.43h-26.72c-.77,3.93-1.62,7.63-2.54,11.17h31c-.77,10-1.77,16.63-3,20a13,13,0,0,1-7.39,9.93c-3.39,1.69-9.16,2.54-17.25,2.54l-2.07-6.93c9.47,0,15.24-.92,17.4-2.85q2.78-2.43,4.85-16.4h-25.41c-.46,1.54-.92,2.93-1.39,4.24h-6.93a174.87,174.87,0,0,0,6.93-28h25.57V28.19H1274V21.87Zm20.63-2.46c1.23.15,1.93.46,1.93,1s-.54,1-1.54,1.77V88.09h-7.16V18.87Z"/></svg>