<svg xmlns="http://www.w3.org/2000/svg" viewBox="0 0 200 200"><defs><style>.a{fill:#005bab;}.a,.b,.c{fill-rule:evenodd;}.b{fill:#00a74d;}.c,.d{fill:#fff;}</style></defs><path class="a" d="M200,100A100,100,0,1,1,100,0,100,100,0,0,1,200,100ZM100,25.49A74.51,74.51,0,1,0,174.51,100,74.51,74.51,0,0,0,100,25.49Z"/><path class="b" d="M72.17,71.7l.3,0,12.41.11,0-11.11a16.13,16.13,0,0,0,0-1.69,12.69,12.69,0,0,0-25.36-.63h0V71.68H71.85l.32,0Zm55.64.88a12.71,12.71,0,1,0-12.69-12.7,12.7,12.7,0,0,0,12.69,12.7Zm0,1.54a18,18,0,0,0-18,17.63H90.16c0-.24,0-.47,0-.7a18,18,0,0,0-36,0,19.57,19.57,0,0,0,.11,2V144H90.06V109.63h19.87v35.63h35.76V94.14a17.19,17.19,0,0,0,.12-2,18,18,0,0,0-18-18Z"/><path class="c" d="M19.15,101.53H6.49v1.74h9.06l-9.06,4.42v1.79H19.15v-1.75h-9l9-4.25v-2ZM9.3,123.4l11.81-5.74-.33-1.81L7.7,114.71,8,116.53l2.55.18.7,3.78L9,121.58l.33,1.82Zm8.93-6.15-4.88,2.25-.56-2.61,5.44.36Zm5,8.19-1-3-2.18.75,1,3-9.83,3.21.55,1.67,9.83-3.21,1,2.9,2.18-.75-1.51-4.58Zm2.61,7.32L14.36,138l.72,1.6,11.52-5.25-.73-1.6Zm3.69,7q-1.33-2.2-4.57-.26l-2.18,1.31-2.16,1.3q-3.27,2-1.93,4.18l.89,1.48.89,1.47c.89,1.48,2.42,1.56,4.6.26l2.16-1.3,2.18-1.31q3.24-2,1.9-4.17l-.89-1.47-.89-1.49Zm-7.19,3.36,1.35-.81,1.34-.81c1.33-.8,2.47-.87,3,0l.54.89.52.87c.53.87-.08,1.81-1.42,2.62l-1.34.81-1.35.81c-1.35.82-2.49.78-3-.09-.17-.3-.35-.59-.52-.87s-.36-.59-.53-.89c-.53-.87.09-1.71,1.43-2.53Zm12.58,5-9.6,8.25,1.14,1.32,6.87-5.9-4,9.25,1.16,1.36,9.6-8.25L39,152.91l-6.81,5.85,4-9.08L35,148.2Zm5.93,24.05,5.39-12-1.42-1.17-10.77,7.51,1.43,1.18,2.07-1.51,3,2.47-1.08,2.32,1.42,1.17Zm2.92-10.44-2.17,4.61-2-1.63,4.13-3Zm3.28,12.48L53,165.64l-1.44-1-7.17,10.43L50,179l1.26-1.77-4.22-2.9ZM67.56,182l-2.12,4.84,1.61.7,5.07-11.6-1.61-.7-2,4.8-4.07-1.77,2-4.81-1.61-.7-5.07,11.6,1.61.7,2.12-4.83L67.56,182Zm6,7.6,5.53,1.75.73-2.29-5.53-1.75.92-2.9L80.09,186l.63-2-4.88-1.55.87-2.79,5.35,1.7.68-2.1-7-2.23-3.83,12.07,1.67.53Zm19.16,3.8-1.47-13-1.83-.29L84,192l1.82.28,1-2.35,3.81.6.25,2.55,1.82.29ZM89.9,182.93l.49,5.58-2.78-.46,2.29-5.12Zm9.16,8.26V180.74H97.3v12.65h6.87v-2.2Zm9.41-10.74-3.12.31.24,2.4,3.12-.32,1,10.2,1.75-.18-1-10.2,3-.31-.24-2.39-4.79.49ZM124.32,185l1.32,5,1.69-.45-3.21-12.24-1.7.45,1.29,4.91-4.29,1.13-1.29-4.92-1.7.45,3.21,12.24,1.7-.45-1.31-5,4.29-1.12Zm8.25-10.93,5,11.63,1.61-.69-5-11.63-1.62.69Zm4.83-2.22L144,182.69l1.5-.91L140.76,174l8.47,5.47,1.53-.93-6.55-10.83-1.5.91,4.65,7.68-8.29-5.48-1.67,1Zm17.29-5.61-2.41,1.91c-.36.3-.86-.09-1.33-.68s-.95-1.29-.55-1.61l1.06-.84,1-.82c.42-.33.89-.05,1.46.65l1.37-1.09a6.45,6.45,0,0,0-1.93-1.94,1.41,1.41,0,0,0-1.58.22l-1.64,1.3-.93.74c-1.4,1.12-1.46,2.49-.16,4.13.08.09.19.24.35.44l.63.79c1.2,1.49,2.1,1.55,3.26.63l2.35-1.9c.43-.35.88-.23,1.34.35.65.82,1.28,1.83.85,2.16l-1.1.88-1.15.91c-.39.32-.7.11-1.16-.47-.12-.14-.24-.3-.38-.48l-1.37,1.1c.3.42.57.83.83,1.14,1.12,1.38,1.91,1.41,2.9.77a16.58,16.58,0,0,0,1.62-1.29l1.62-1.29c1-.79.88-2-.34-3.49l-.63-.8c-.15-.18-.34-.41-.55-.68-1.24-1.56-2.24-1.71-3.45-.74Zm1.1-7.76,6.21,6q2.88,2.79,5,.61l.64-.67.62-.64q2.14-2.22-.74-5l-6.21-6L160.1,154l6,5.69c1,1,1.23,1.85.57,2.53l-.55.58c-.17.17-.36.36-.56.58-.65.67-1.5.5-2.55-.5l-6-5.69-1.22,1.26Zm19.09-8.44,2.79,1.9,1-1.45-2.79-1.9A3.22,3.22,0,0,0,174,148a4.27,4.27,0,0,0-1.76-1.93l-.66-.45-.68-.46q-2.64-1.8-3.81-.1c-.18.25-.38.56-.62.91l-2.7,3.95,10.46,7.13,1-1.45-3.81-2.6,1.7-2.5a1.65,1.65,0,0,1,.82-.68,1.12,1.12,0,0,1,1,.21Zm-6.48-2.71.4-.58q.4-.58,1.74.33c.88.6,1.19,1.1.94,1.49-.17.24-.3.44-.4.59l-1.71,2.5-2.67-1.83,1.7-2.5Zm16.89-8.56L172.47,136l-.86,1.64,9.59,9,.86-1.63-1.9-1.72,1.79-3.41,2.49.58.85-1.63Zm-10.81-.69,5,1.17-1.18,2.25-3.77-3.42Zm.67-7.75,11.92,4.23.59-1.65-8.54-3,10-1.14.6-1.68-11.93-4.23-.58,1.64,8.47,3-9.89,1-.65,1.83Zm8-19q-2.91-.54-3.4,2c-.1.57-.21,1.13-.31,1.69s-.21,1.13-.32,1.71q-.47,2.54,3.24,3.23l2.5.46,2.49.46c2.49.47,3.9-.15,4.21-1.84.11-.56.21-1.13.32-1.71s.21-1.12.32-1.7q.48-2.56-2.73-3.18l-1.5-.29-.32,1.72c.4.08.75.19,1.15.27,1.18.22,1.4.8,1.21,1.83-.06.34-.13.68-.19,1s-.13.67-.19,1c-.18,1-1.35,1.26-2.9,1l-1.55-.28-1.54-.29c-1.53-.28-2.41-.93-2.23-1.94.06-.33.13-.67.19-1s.12-.66.19-1a1.36,1.36,0,0,1,1.79-1.23c.34.07.19,0,.53.05l.33-1.72-1.29-.23Zm10.4-4.93v-5.8h-2.3v5.8h-2.93v-5.12h-2.2v5.12h-3V100.8h-2.21v7.36h12.66v-1.75Z"/><path class="d" d="M171.77,54.45l-1.29-1.62,2-1.65,1.73,2.15-1.7,1.38a.31.31,0,0,1-.36.07,1,1,0,0,1-.4-.33ZM166,47.37,164.84,46l2.08-1.7,1.59,2-1.76,1.45a.33.33,0,0,1-.34.06,1.09,1.09,0,0,1-.42-.36ZM155.72,43l1.4,1.74a2.85,2.85,0,0,0,1.45,1,1.49,1.49,0,0,0,1.34-.34L164.22,42a1,1,0,0,0,.37-.71,3.15,3.15,0,0,0-.15-1.11,2.3,2.3,0,0,0,1.11.33,1.59,1.59,0,0,0,1-.37l4.95-4L167,30.54l-14.45,11.7,1.65,2L155.72,43Zm6-4.83.43.54a4.62,4.62,0,0,1,.55.8c.09.2.1.34,0,.41l-4,3.22a.53.53,0,0,1-.31.13.31.31,0,0,1-.25-.15l-1-1.26,4.55-3.69Zm5.53-4.47,1.24,1.55-3.86,3.11a.32.32,0,0,1-.36.06,1,1,0,0,1-.4-.34l-.8-1,4.18-3.39Zm5.7,5.42-.9-.29a1.43,1.43,0,0,1-.55-.32,4.79,4.79,0,0,1-.62-.64l-.37-.47-1.37,1.1L170.26,40a4.4,4.4,0,0,0,.91.92,14,14,0,0,0,2.66.58l3.52,4.46,1,1.32a16.67,16.67,0,0,0,.07,2.85,4.55,4.55,0,0,0,.64,1.07l1.27,1.61,1.39-1.08-.5-.65a4.38,4.38,0,0,1-.5-.74,2.06,2.06,0,0,1-.18-.61l-.06-.95.21-1.63-6.17-7.79-1.64-.17ZM161.75,52.76l2.58,3.36v0l0,0a3,3,0,0,0,1.17.94,1.82,1.82,0,0,0,1.24,0l1.85-.71-1.06,2.32a2.3,2.3,0,0,0-.16,1,1.4,1.4,0,0,0,.28.75l1.26,1.54,1.27-1-.45-.55a.94.94,0,0,1-.19-.44.76.76,0,0,1,.13-.46c.58-2,.53-1.51-.47-3.31l1.41-.6.78,1a2.84,2.84,0,0,0,1.15,1,1,1,0,0,0,1-.16l3.63-3-5-6.19-4.53,3.67,1.16,1.45-3,1.24a1.34,1.34,0,0,1-.53.06.58.58,0,0,1-.32-.17l-.87-1.2h0l-.37-.47a.64.64,0,0,1-.17-.4.72.72,0,0,1,.13-.44c.57-1.72.72-1.29-.21-2.88l1.33-.56.8,1a2.68,2.68,0,0,0,1.1.91,1,1,0,0,0,1-.19l3.69-3-4.79-5.94L162,45l1,1.27-2.87,1.24a1.83,1.83,0,0,1-.51.09.39.39,0,0,1-.3-.16l-.57-.71-1.23,1,1.15,1.43a2.79,2.79,0,0,0,1.15.89,1.74,1.74,0,0,0,1.23,0l1.23-.5-.7,1.61a1.8,1.8,0,0,0-.15.91,1.2,1.2,0,0,0,.28.72l0,0Zm7-12.91L179,52.73l-1.27,1L167.52,40.84l1.26-1Zm-96.13-33-.84,4.82a2.79,2.79,0,0,1-.25.73.61.61,0,0,1-.42.28l-1,.18.36,2.17,1.82-.31L74.34,27l2.71-.46L74.51,11.56,75.6,6.39l-2.95.49Zm8.57-.5.27,1.51,3.94-.64.27,1.54-4.82.78.3,1.6L86,10.38l.28,1.52-4,.63L82.58,14l4-.63.29,1.6-4.34.7.29,1.61,4.32-.72.27,1.45-4.82.79.29,1.6,4.81-.79.17.89,3-.51-.15-.87,5.82-1-.28-1.6-5.84,1-.24-1.46,5.33-.87-.28-1.59-5.34.87-.29-1.6,2.68-.44A3.78,3.78,0,0,0,94,11.84a1,1,0,0,0,.42-1.11l-.29-1.68,1.53-.25-.28-1.6-1.54.26L93.3,4.4l-5.07.83L88,4.11,85,4.6l.19,1.13-3.94.65Zm7.28.36,2.4-.39.28,1.54-2.42.39L88.5,6.74Zm-11,9-.26,0,.24,1.34.66-.1h0c.17.06.31.18.36.51.34,1.58.75,3.16,1,4.76a.86.86,0,0,1-.07.57.81.81,0,0,1-.54.36l-.49.1.32,1.8,1.41-.24a2,2,0,0,0,1.12-.57,9.55,9.55,0,0,0,.74-1.63c1,.53,2.68,1.52,3.62,1.36L98.3,21.93,98,20.12l-10.8,1.79c-1.1.18-5.86-1.42-5.86-2.21-.23-1.92-.74-3.95-1.71-4h0a1,1,0,0,0,.67-1L79.15,7.7a.74.74,0,0,0-.82-.62l-2.16.31-.46.08L76,9.28l.5-.08c.33-.06.69,0,.75.41l.94,5.48c0,.31-.25.61-.65.67ZM89.05,9.88l2.41-.4.21,1.19a.27.27,0,0,1-.12.29,1.29,1.29,0,0,1-.47.15l-1.76.29-.27-1.52Zm-43,20c5.2-3.19,10.34-6.36,15.54-9.57a2.58,2.58,0,0,0,1.12-1.11A1.31,1.31,0,0,0,62.58,18l-3.31-5.4-20,12.28,8.84,14.41a1.51,1.51,0,0,0,1.12.8,2.52,2.52,0,0,0,1.59-.48l8.4-5.17-1.1-1.8-6.94,4.28a1,1,0,0,1-.49.18.36.36,0,0,1-.33-.19l-2-3.24,10.46-6.44L65,29.68c.66.54,1.75.19,2.38-.2l3.11-1.72-1.19-1.65-2.09,1.11a1.16,1.16,0,0,1-.51.18.72.72,0,0,1-.45-.17l-4.55-1.8,4.84-3-1-1.72-6.13,3.77-1.44-.57-2.84,1.73,1.44.59-9.2,5.65-1.23-2Zm-3-5L57.6,16l1.78,2.86a.34.34,0,0,1,0,.36,1.09,1.09,0,0,1-.36.35L45,28.15l-2-3.23ZM35.7,35.87,21.6,53.62l1.66,1.3,6.09-7.66,2.32,1.83-5.94,7.53,1.64,1.28,5.94-7.52,2.19,1.73L29,60.29l1.72,1.36L45.66,42.79l-1.72-1.36L37.41,49.7,35.21,48l6-7.61L39.6,39.08l-6,7.6-2.33-1.84,6.09-7.67-1.64-1.3ZM19.87,48.15,20,49.28a1.32,1.32,0,0,1-.1.7,3.48,3.48,0,0,1-.48.79l-1.16,1.46,1.19.94,1.95-2.47a4.92,4.92,0,0,0,.83-1.41A2.32,2.32,0,0,0,22.35,48l0-2.24,2.83-3.56L28.5,38l2.19-.47a2.38,2.38,0,0,0,1.2-.42A5.34,5.34,0,0,0,33.07,36l2-2.44-1.17-.95-1.18,1.45a3.35,3.35,0,0,1-.66.65,1.34,1.34,0,0,1-.65.25l-1.12.14-2,0-4.47,5.58h0l-.26.33-.29.35h0l-3.9,4.94.49,1.88Zm101-25.33.37,1.54a2.22,2.22,0,0,0,.62,1.09A2.32,2.32,0,0,0,123,26l3.67.68L127,25l-2.46-.45a.58.58,0,0,1-.33-.17A.67.67,0,0,1,124,24L124,23.4l-3.11-.58Zm3.66-3a2.33,2.33,0,0,1-.7.63,1.06,1.06,0,0,1-.71.13l-2.45-.46-.32,1.69,3.68.68a2.58,2.58,0,0,0,.87,0,1.85,1.85,0,0,0,.81-.23,2.48,2.48,0,0,0,.85-.64,11.84,11.84,0,0,0,1-1.28l-3-.56Zm-13.92,1.11a2.44,2.44,0,0,1-.76.65,1.19,1.19,0,0,1-.78.11l-1.64-.31L107.08,23l2.89.54a3.74,3.74,0,0,0,.94.05,4.32,4.32,0,0,0,.88-.2,2.89,2.89,0,0,0,.87-.64,9.92,9.92,0,0,0,1-1.29l-3.13-.58Zm-1.45-4,.48,1.53a2.26,2.26,0,0,0,.76,1.14,3.1,3.1,0,0,0,1.38.58l2.67.5.31-1.69-1.56-.29a1.18,1.18,0,0,1-.52-.21.81.81,0,0,1-.3-.36l-.2-.65-3-.55ZM120,15.3l4.13.78-.14.77a.25.25,0,0,1-.2.21,1.29,1.29,0,0,1-.51,0l-3.48-.64.2-1.1Zm.47-2.5,4.13.76-.18,1-4.15-.77.2-1ZM109.9,9.09l-.3,1.68,8,1.5-.18,1-8.57-1.62-.27,1.49,8.56,1.62-.2,1.11-8-1.5-.31,1.68,8,1.5-1,5.34a.29.29,0,0,1-.2.24.92.92,0,0,1-.44,0l-1.12-.21-.3,1.68,1.8.34a4.26,4.26,0,0,0,2.14,0,1.37,1.37,0,0,0,.93-1.13l1.06-5.7,4.48.84c1.71.32,2.65,0,2.83-.95l.24-1.34,1.78.33.27-1.5-1.76-.33.49-2.68-7-1.31.19-1-2.88-.53-.19,1-8-1.5Zm7.43-3.47-.22,1.18-10.69-2-2.9,15.68a.27.27,0,0,1-.19.21.94.94,0,0,1-.45,0l-.87-.16-.35,1.84,1.46.27a3.7,3.7,0,0,0,2.28-.14,2,2,0,0,0,1-1.49L109,7.2l21.15,3.93.35-1.84-10-1.87.22-1.18-3.34-.62ZM148.14,32.1,147,36.87a2,2,0,0,0,.1,1.4,2.76,2.76,0,0,0,1,1.13l1.79,1.21,1.17-1.75-.77-.51A.77.77,0,0,1,150,38a1,1,0,0,1,0-.56l.82-3.51-2.7-1.8Zm-8.52-5.67L137,28.75a1.79,1.79,0,0,1-.56.26.47.47,0,0,1-.38-.05l-1.22-.81-1.12,1.67,2.06,1.38a3,3,0,0,0,1.52.53,2.14,2.14,0,0,0,1.37-.52l3.59-3-2.64-1.75Zm14,.5-8.39-5.59,2.14-3.2,8.87,5.92-1.79,2.68a.61.61,0,0,1-.39.3.59.59,0,0,1-.44-.11Zm-7.82-12.15-4.27,6.39,5.34,3.56-1.26,1.88-6.53-4.35L137.89,24l6.52,4.36-4.26,6.39,2.7,1.81,4.27-6.4,6.65,4.44,1.16-1.75-6.64-4.43,1.25-1.88,4.21,2.81c1.24.82,2.18.77,2.79-.15l3.34-5-14.11-9.42Zm-3.43-2.93-3.31,2a1.6,1.6,0,0,1-.6.21A.58.58,0,0,1,138,14l-1-.69-1.22,1.82,1.61,1.07L129.6,27.72l2.52,1.67,9-13.47L145,13.66l-2.7-1.81Z"/></svg>