<svg xmlns="http://www.w3.org/2000/svg" xmlns:xlink="http://www.w3.org/1999/xlink" viewBox="0 0 1920 1280"><defs><style>.a{fill:url(#a);}.b{fill:url(#b);}.c{mask:url(#c);}.d{fill:#b4e38e;}</style><radialGradient id="a" cx="1326.82" cy="694.41" r="556.24" gradientTransform="translate(-10.51 16.8) rotate(-2.83)" gradientUnits="userSpaceOnUse"><stop offset="0" stop-color="#fff"/><stop offset="0.25" stop-color="#b2b2b2"/><stop offset="0.52" stop-color="#676767"/><stop offset="0.74" stop-color="#2f2f2f"/><stop offset="0.91" stop-color="#0d0d0d"/><stop offset="1"/></radialGradient><radialGradient id="b" cx="806.67" cy="640" r="1008.04" gradientTransform="translate(-250) scale(1.5 1)" gradientUnits="userSpaceOnUse"><stop offset="0" stop-color="#fefefe"/><stop offset="0.19" stop-color="#fbfcfa"/><stop offset="0.38" stop-color="#f3f8ed"/><stop offset="0.58" stop-color="#e6f0d9"/><stop offset="0.78" stop-color="#d4e6bc"/><stop offset="0.98" stop-color="#bcd897"/><stop offset="1" stop-color="#b9d692"/></radialGradient><mask id="c" x="790.78" y="88.57" width="1123.91" height="1164.65" maskUnits="userSpaceOnUse"><path class="a" d="M1904.59,617.34c15.19,306.83-221.25,567.88-528.08,583.06S808.63,979.16,793.45,672.33s221.24-567.88,528.08-583.07S1889.4,310.51,1904.59,617.34Z"/></mask></defs><rect class="b" width="1920" height="1280"/><g class="c"><path class="d" d="M1004.07,342.49,982.2,388a6.51,6.51,0,1,0,1.08,12l28.11,41.11a6.47,6.47,0,0,0,.21,11.65l-21.75,45.32a6.52,6.52,0,0,0-9.35,6L929.79,508a6.36,6.36,0,0,0-.94-2.18,6.54,6.54,0,0,0-7.67-2.42l-28.53-41.71a6.52,6.52,0,1,0-11.33-5L831,460.45a6.09,6.09,0,0,0-.9-2,6.53,6.53,0,0,0-10.79,7.37,6.25,6.25,0,0,0,2.23,2l-21.75,45.33A6.54,6.54,0,1,0,801,524.58L829.35,566a6.54,6.54,0,1,0,10.22,5.27l50.09-3.83a6.62,6.62,0,0,0,1.06,2.81,6.53,6.53,0,0,0,9.08,1.7l28.32,41.4a6.54,6.54,0,0,0-1.71,9.09,6.44,6.44,0,0,0,2.61,2.18L907.27,670a6.52,6.52,0,0,0-8.22,9.56,6.56,6.56,0,0,0,9.1,1.7l28.33,41.44a6.54,6.54,0,1,0,10.2,5.69l50.16-3.83a6.46,6.46,0,0,0,1,2.38,6.54,6.54,0,0,0,9.09,1.7l28.91,42.28a6.5,6.5,0,0,0-1.11,8.58,6.38,6.38,0,0,0,1.88,1.82l-21.78,45.38a6.52,6.52,0,1,0,.94,12l28.43,41.57a6.52,6.52,0,1,0,10.8,5.15l50.15-3.83a6.5,6.5,0,0,0,9.41,4.49l28.76,42a6.52,6.52,0,1,0,10.82,4.78l50.81-3.89a6.63,6.63,0,0,0,1,2.45,6.51,6.51,0,0,0,8.39,2.08L1242.8,975a6.52,6.52,0,1,0,10.81,5l50.13-3.84a6.27,6.27,0,0,0,1,2.53,6.5,6.5,0,0,0,8.39,2.08l28.48,41.65a6.44,6.44,0,0,0,.94,10.48l-22,46a6.49,6.49,0,0,0-9.13,5.84l-50.16,3.84a6.4,6.4,0,0,0-1-2.6,6.54,6.54,0,1,0-8.75,9.28l-21.76,45.36a6.47,6.47,0,0,0-5.93.72,6.52,6.52,0,0,0,6.69,11.17l28.43,41.57a6.52,6.52,0,1,0,10.78,5.35l50.22-3.84a6.43,6.43,0,0,0,1,2.22,6.51,6.51,0,0,0,8.39,2.09l28.64,41.87a6.51,6.51,0,1,0,10.79,5.15l50.16-3.83a6.39,6.39,0,0,0,1,2.41,6.53,6.53,0,1,0,8.91-9.2l22-45.92a6.5,6.5,0,0,0,9-5.77l50.15-3.83a6.54,6.54,0,1,0,11.8-5,6.47,6.47,0,0,0-1.87-1.82l21.79-45.4a6.52,6.52,0,1,0-1-12l-28.39-41.49a6.47,6.47,0,0,0-.55-10.22l22.29-46.47a6.51,6.51,0,0,0,9.35-6l50-3.81a6.48,6.48,0,0,0,9.42,4.62l28.43,41.57A6.52,6.52,0,1,0,1642,1060l50.15-3.83a6.54,6.54,0,1,0,11.82-5,6.66,6.66,0,0,0-1.89-1.82L1723.9,1004a6.45,6.45,0,0,0,5.72-.79,6.51,6.51,0,0,0,2.85-5.44l51.59-3.94a6.63,6.63,0,0,0,.9,2,6.54,6.54,0,0,0,10.8-7.38,6.31,6.31,0,0,0-2.23-2l21.73-45.3a6.51,6.51,0,0,0,9-5.77l50.15-3.83a6.54,6.54,0,1,0,11.81-5,6.77,6.77,0,0,0-1.88-1.82l21.79-45.4a6.52,6.52,0,1,0-1-12l-28.37-41.5a6.52,6.52,0,1,0-10.8-5.2l-50.19,3.84a6.62,6.62,0,0,0-1-2.41,6.51,6.51,0,0,0-8.39-2.09l-28.86-42.19a6.52,6.52,0,1,0-10.8-4.62L1716,777.11a6.52,6.52,0,0,0-9.4-4.44l-28.37-41.49a6.52,6.52,0,1,0-10.8-5.2l-50.19,3.83a6.39,6.39,0,0,0-1-2.41,6.54,6.54,0,1,0-10.79,7.38,6.38,6.38,0,0,0,1.88,1.82L1585.58,782a6.52,6.52,0,1,0,.92,11.95l28.44,41.57a6.47,6.47,0,0,0,1,10.52l-21.67,45.15a6.5,6.5,0,0,0-9.08,6.64L1534,901.72a6.29,6.29,0,0,0-1.06-2.85,6.5,6.5,0,0,0-8.76-1.88l-28.33-41.42a6.52,6.52,0,1,0-10.49-5l-50.12,3.83a6.46,6.46,0,0,0-9.84-4.77l-28.21-41.26a6.52,6.52,0,1,0-10.8-5.29l-49.82,3.8a6.21,6.21,0,0,0-1-2.51,6.54,6.54,0,1,0-9.18,9l-22.24,46.35a6.5,6.5,0,0,0-8.83,5.66l-50.23,3.84a6.7,6.7,0,0,0-1-2.29,6.53,6.53,0,0,0-9.09-1.71l-32.54-47.59L1145.33,822a6.39,6.39,0,0,0-1-2.57,6.52,6.52,0,0,0-8.38-2.09l-28.38-41.49a6.51,6.51,0,0,0,1.09-8.57,6.38,6.38,0,0,0-2.15-2l22.12-46.07a6.51,6.51,0,0,0,9-5.77l50.14-3.84a6.54,6.54,0,0,0,10.11,4.12l28.54,41.74a6.52,6.52,0,1,0,10.8,5.22l50.12-3.83a6.53,6.53,0,1,0,11.75-5.17,6.24,6.24,0,0,0-1.71-1.69l22-45.86a6.5,6.5,0,0,0,9-5.76l50.15-3.84a6.5,6.5,0,0,0,9.41,4.49l28.75,42a6.52,6.52,0,1,0,10.82,4.79l49.73-3.8a6.29,6.29,0,0,0,.89,2,6.53,6.53,0,1,0,9.28-8.91l21.57-45a6.53,6.53,0,1,0-.53-11.83l-29-42.44a6.52,6.52,0,0,0,1.1-8.58,6.34,6.34,0,0,0-1.23-1.3l22.16-46.19a6.48,6.48,0,0,0,8.22-6l50.16-3.83a6.53,6.53,0,0,0,10.1,4.08l28.39,41.52a6.52,6.52,0,1,0,10.75,5.69l51.23-3.91a7,7,0,0,0,.84,1.81,6.54,6.54,0,0,0,10.79-7.38,6.44,6.44,0,0,0-2-1.9l21.59-45a6.51,6.51,0,1,0-1.41-12.06l-27.65-40.43a6.52,6.52,0,1,0-10.74-5.88L1600,510.52a6.29,6.29,0,0,0-1-2.59,6.52,6.52,0,0,0-7.67-2.42l-28.52-41.71a6.52,6.52,0,1,0-11.37-4.62L1501.19,463a6.58,6.58,0,0,0-1-2.44,6.5,6.5,0,0,0-8.39-2.08L1463.37,417a6.47,6.47,0,0,0-.45-10.16l22-45.76a6.52,6.52,0,1,0-.73-12.18L1455.5,307a6.52,6.52,0,0,0,1.1-8.58,6.63,6.63,0,0,0-1.88-1.82l21.79-45.4a6.52,6.52,0,1,0-1-12l-28.37-41.5a6.52,6.52,0,1,0-10.8-5.2l-50.19,3.83a6.69,6.69,0,0,0-1-2.41,6.5,6.5,0,0,0-8.39-2.08l-28.9-42.25a6.52,6.52,0,1,0-10.8-4.56l-49.72,3.79a6.74,6.74,0,0,0-1-2.28,6.54,6.54,0,1,0-10.79,7.38,6.37,6.37,0,0,0,1.77,1.74l-21.57,45a6.52,6.52,0,1,0,.33,11.72l28.9,42.26a6.53,6.53,0,0,0-1.11,8.58,6.69,6.69,0,0,0,1.57,1.57l-22.12,46.07a6.49,6.49,0,0,0-5.74.78,6.52,6.52,0,0,0,6.68,11.17l28.6,41.81a6.53,6.53,0,0,0-1.11,8.58,6.34,6.34,0,0,0,1.88,1.81l-21.77,45.39a6.52,6.52,0,1,0,.93,11.95l28.43,41.58a6.5,6.5,0,0,0-1.1,8.57,6.39,6.39,0,0,0,1.62,1.62l-22.12,46.1a6.52,6.52,0,1,0,.94,11.95L1309.18,584a6.54,6.54,0,0,0-1.11,8.59,6.73,6.73,0,0,0,1.88,1.81l-21.77,45.39a6.5,6.5,0,0,0-8.6,6.25l-51.69,4a6.51,6.51,0,0,0-9.39-4.44L1190.12,604a6.52,6.52,0,1,0-10.8-5.21l-50.19,3.83a6.62,6.62,0,0,0-1-2.4,6.52,6.52,0,0,0-8.39-2.09l-29-42.44a6.52,6.52,0,0,0,.52-8,6.63,6.63,0,0,0-1.22-1.31l21.93-45.69a6.53,6.53,0,1,0-1-12.52l-28.53-41.72a6.48,6.48,0,0,0-.48-9.15l22.51-46.93a6.45,6.45,0,0,0,8.21-6l50.16-3.84a6.44,6.44,0,0,0,1,2.39,6.54,6.54,0,0,0,10.79-7.38,6.31,6.31,0,0,0-1.22-1.3l21.92-45.7a6.53,6.53,0,1,0-1-12.52l-28.53-41.72a6.52,6.52,0,1,0-11.37-4.61l-50.19,3.83a6.53,6.53,0,1,0-11.81,4.94,6.45,6.45,0,0,0,2.61,2.19L1073.2,326a6.5,6.5,0,0,0-9.35,6l-50,3.82a6.41,6.41,0,0,0-1-2.56,6.54,6.54,0,1,0-10.79,7.38A6.34,6.34,0,0,0,1004.07,342.49Zm108.44,40.32a6.31,6.31,0,0,0-1-2.42,6.51,6.51,0,0,0-7.67-2.41l-28.58-41.8a6.41,6.41,0,0,0-.72-9.34l21.92-45.66a6.51,6.51,0,0,0,7.8-6.08l50.19-3.84a6.25,6.25,0,0,0,1,2.42,6.55,6.55,0,0,0,9.09,1.7l28.28,41.36a6.55,6.55,0,0,0-1.7,9.09,6.27,6.27,0,0,0,2.65,2.21L1172,373.38a6.48,6.48,0,0,0-9.35,5.6Zm-23,174,28.9,42.27a6.54,6.54,0,0,0-1.1,8.58,6.4,6.4,0,0,0,1.8,1.76l-21.79,45.42a6.47,6.47,0,0,0-8.47,5.78l-52,4a6.28,6.28,0,0,0-.93-2.11,6.53,6.53,0,0,0-6.88-2.66l-28.79-42.11a6.54,6.54,0,0,0,0-7.38,6.45,6.45,0,0,0-.93-1.08l22.34-46.55a6.46,6.46,0,0,0,7.52-5.86l50.27-3.85a6.42,6.42,0,0,0,.92,2.12A6.54,6.54,0,0,0,1089.52,556.76Zm372.56-138.92,28.4,41.54a6.51,6.51,0,0,0-1.1,8.58,6.7,6.7,0,0,0,2,1.87l-21.76,45.36a6.51,6.51,0,0,0-8.72,6l-56.1,4.29-31.88-46.63a6.53,6.53,0,0,0-.7-10.34L1394,423a6.46,6.46,0,0,0,8.43-5.76l50.25-3.83a6.48,6.48,0,0,0,9.38,4.39Zm-158.93,67a6.5,6.5,0,0,0,8.86-5.32l50.34-3.85a6.61,6.61,0,0,0,.87,1.94,6.53,6.53,0,0,0,7.67,2.42l32,46.73-24.48,51a6.46,6.46,0,0,0-8.27,5.65l-50.3,3.85a6.34,6.34,0,0,0-.93-2.14,6.5,6.5,0,0,0-8.39-2.08l-28.6-41.82a6.52,6.52,0,0,0-.8-10.41Zm-8.06-109.21a6.49,6.49,0,0,0,8.6-5.88l50.18-3.83a6.65,6.65,0,0,0,1,2.44,6.52,6.52,0,0,0,8.39,2.08L1391.66,412a6.51,6.51,0,0,0-1.1,8.58,6.38,6.38,0,0,0,1.93,1.84l-21.78,45.4a6.47,6.47,0,0,0-8.59,5.88L1312,477.48a6.41,6.41,0,0,0-1-2.39,6.51,6.51,0,0,0-8.39-2.08l-28.43-41.57a6.5,6.5,0,0,0-.8-10.41Zm-8.26-110.11a6.57,6.57,0,0,0,6.16-.65,6.49,6.49,0,0,0,2.78-4.71l50.34-3.85a6.47,6.47,0,0,0,.9,2.06,6.54,6.54,0,0,0,7.67,2.41l28.58,41.8a6.41,6.41,0,0,0,1,9.57l-22.2,46.26a6.45,6.45,0,0,0-8.26,5.65l-50.31,3.85a6.4,6.4,0,0,0-.92-2.14,6.5,6.5,0,0,0-8.4-2.08l-28.59-41.82a6.5,6.5,0,0,0-.81-10.41Zm50.52-119a6.92,6.92,0,0,0,.83,1.82,6.54,6.54,0,0,0,8.4,2.08l28.89,42.25a6.5,6.5,0,0,0-1.1,8.57,6.69,6.69,0,0,0,1.79,1.77l-21.79,45.41a6.46,6.46,0,0,0-8.45,5.79l-50.24,3.83a6.35,6.35,0,0,0-1-2.31,6.5,6.5,0,0,0-8.39-2.08l-28.89-42.25a6.42,6.42,0,0,0-.28-10l21.63-45.09a6.5,6.5,0,0,0,8.73-6Zm115.94,149.32a6.49,6.49,0,0,0-8.59,5.88l-50.16,3.83a6.64,6.64,0,0,0-1-2.38,6.53,6.53,0,0,0-8.4-2.09l-28.43-41.57a6.5,6.5,0,0,0,1.1-8.58,6.61,6.61,0,0,0-1.9-1.83l21.77-45.38a6.48,6.48,0,0,0,8.6-5.88l50.19-3.83a6.27,6.27,0,0,0,1,2.44,6.52,6.52,0,0,0,8.39,2.08l28.37,41.49a6.49,6.49,0,0,0,.83,10.42ZM1461.55,406a6.5,6.5,0,0,0-8.94,5.36l-50.35,3.85a6.42,6.42,0,0,0-8.58-4.5L1365.16,369a6.49,6.49,0,0,0,.52-8,6.67,6.67,0,0,0-1.58-1.6l22.19-46.24a6.46,6.46,0,0,0,8.33-5.69l50.25-3.84a6.28,6.28,0,0,0,.94,2.14,6.51,6.51,0,0,0,8.39,2.08l28.61,41.84a6.52,6.52,0,0,0-1.41,8.83,6.67,6.67,0,0,0,2,1.9Zm147.51,213.73a6.48,6.48,0,0,0-9.46-5l-28.52-41.69a6.51,6.51,0,0,0,.53-8,6.44,6.44,0,0,0-1.14-1.24l21.94-45.74a6.49,6.49,0,0,0,7.63-5.95l51.59-4a6.46,6.46,0,0,0,9.48,5.19l27.66,40.43a6.5,6.5,0,0,0-1.09,8.55,6.56,6.56,0,0,0,2.32,2l-21.56,44.94a6.48,6.48,0,0,0-8.43,6.54Zm-99.51-47.46a6.43,6.43,0,0,0-1-2.41,6.54,6.54,0,0,0-7.67-2.42l-28.58-41.79a6.52,6.52,0,0,0,.53-8,6.89,6.89,0,0,0-1.25-1.33l21.91-45.66a6.5,6.5,0,0,0,7.8-6.08l50.2-3.83a6.53,6.53,0,0,0,10.1,4.12l28.28,41.35a6.54,6.54,0,0,0-1.7,9.09,6.43,6.43,0,0,0,2.65,2.22l-21.76,45.33a6.49,6.49,0,0,0-9.34,5.6Zm-31.61,52.89a6.48,6.48,0,0,0-9.35,5.59l-50,3.82a6.76,6.76,0,0,0-.92-2.08,6.51,6.51,0,0,0-7.66-2.42l-28.53-41.71a6.52,6.52,0,0,0,.53-8,6.67,6.67,0,0,0-1.59-1.59l24.71-51.49,56-4.28a6.41,6.41,0,0,0,9.29,4.11l28.43,41.57a6.53,6.53,0,0,0-1.11,8.58,6.62,6.62,0,0,0,2.23,2Zm-50.69,119.16a6.3,6.3,0,0,0-.9-2,6.49,6.49,0,0,0-8.39-2.09l-28.75-42.05a6.51,6.51,0,0,0-.7-10.33l21.8-45.44a6.46,6.46,0,0,0,8.43-5.76l50.1-3.83a6.81,6.81,0,0,0,.86,1.91,6.53,6.53,0,0,0,8.4,2.08l29,42.44a6.5,6.5,0,0,0-1.11,8.58,6.65,6.65,0,0,0,1.56,1.57l-21.57,45a6.53,6.53,0,0,0-9,6.19Zm-99-47.5a6.58,6.58,0,0,0-1-2.39,6.51,6.51,0,0,0-8.38-2.08l-28.44-41.58a6.5,6.5,0,0,0,1.1-8.57,6.36,6.36,0,0,0-1.9-1.83L1311.39,595a6.49,6.49,0,0,0,8.59-5.88l50.18-3.83a6.51,6.51,0,0,0,9.42,4.52L1408,631.31a6.51,6.51,0,0,0-1.1,8.58,6.36,6.36,0,0,0,1.93,1.84L1387,687.13a6.48,6.48,0,0,0-8.6,5.88ZM1199,712.71a6.55,6.55,0,0,0,.53-8,6.16,6.16,0,0,0-1.35-1.39l21.9-45.65a6.48,6.48,0,0,0,7.89-6.14l51.81-4a6.73,6.73,0,0,0,.91,2.06,6.52,6.52,0,0,0,7.67,2.4l28.58,41.8a6.42,6.42,0,0,0,1,9.58l-22,45.91a6.52,6.52,0,0,0-8.81,6l-50,3.81a6.7,6.7,0,0,0-1-2.45,6.51,6.51,0,0,0-8.39-2.08Zm-61.54-.79a6.52,6.52,0,0,0-9.4-4.47l-28.43-41.58a6.5,6.5,0,0,0,1.1-8.57,6.39,6.39,0,0,0-1.91-1.83l21.78-45.38a6.48,6.48,0,0,0,8.59-5.88l50.19-3.84a6.51,6.51,0,0,0,9.41,4.53l28.38,41.49a6.51,6.51,0,0,0-1.1,8.58,6.26,6.26,0,0,0,1.93,1.84l-21.79,45.4a6.47,6.47,0,0,0-8.59,5.88ZM1105,764.73a6.44,6.44,0,0,0-8.26,5.65l-50.31,3.84a6.45,6.45,0,0,0-9.32-4.22l-29-42.45a6.51,6.51,0,0,0,.53-8,6.44,6.44,0,0,0-1.14-1.24l22-45.74a6.49,6.49,0,0,0,7.62-5.95l52-4a6.35,6.35,0,0,0,.91,2,6.53,6.53,0,0,0,7.67,2.42l28.58,41.79a6.42,6.42,0,0,0,1,9.58Zm237.91,256.88L1314.46,980a6.48,6.48,0,0,0-.79-10.4l21.79-45.41a6.48,6.48,0,0,0,8.55-5.84l51.29-3.93a6.24,6.24,0,0,0,.77,1.58,6.52,6.52,0,0,0,7.24,2.55l28.73,42a6.51,6.51,0,0,0-.25,7.67,6,6,0,0,0,1.59,1.59l-24.92,51.94-56.14,4.29a6.62,6.62,0,0,0-1-2.33A6.52,6.52,0,0,0,1342.94,1021.61Zm43.57-217a6.48,6.48,0,0,0,9.42,4.62l28.27,41.32a6.55,6.55,0,0,0-.78,8.31,6.42,6.42,0,0,0,1.85,1.79l-21.79,45.4a6.51,6.51,0,0,0-8.56,6.26l-51.14,3.91a6.66,6.66,0,0,0-.88-2,6.53,6.53,0,0,0-7.67-2.42l-28.52-41.71a6.52,6.52,0,0,0,.52-8,6.31,6.31,0,0,0-1.68-1.66l22.23-46.33a6.51,6.51,0,0,0,8.91-5.69Zm99.14,47.49a6.26,6.26,0,0,0,.88,2,6.52,6.52,0,0,0,8,2.29L1523,898a6.51,6.51,0,0,0,1.21,10.18L1502.4,953.5a6.52,6.52,0,0,0-8.67,6.36l-50.09,3.83a6.43,6.43,0,0,0-1.06-2.87,6.52,6.52,0,0,0-8.77-1.88l-28.38-41.5a6.53,6.53,0,0,0,1.43-8.85,6.46,6.46,0,0,0-1.85-1.8l21.77-45.4a6.47,6.47,0,0,0,8.5-5.4Zm131.74-5.5a6.47,6.47,0,0,0,8.33-5.7l50.26-3.85a6.19,6.19,0,0,0,.93,2.15,6.52,6.52,0,0,0,8.39,2.08l32,46.8-24.68,51.44a6.51,6.51,0,0,0-8.82,5.28l-50.38,3.85a6.28,6.28,0,0,0-.86-1.93,6.54,6.54,0,0,0-7.67-2.42L1596,902a6.43,6.43,0,0,0-.33-10Zm50.17-119.09a6.51,6.51,0,0,0,9.41,4.51l28.37,41.49a6.48,6.48,0,0,0,.84,10.43l-21.79,45.4a6.47,6.47,0,0,0-8.59,5.87l-50.17,3.84a6.32,6.32,0,0,0-1-2.39,6.51,6.51,0,0,0-8.4-2.08L1587.81,793a6.5,6.5,0,0,0,1.09-8.57,6.57,6.57,0,0,0-1.89-1.83l21.77-45.38a6.47,6.47,0,0,0,8.59-5.88ZM1767,774.79a6.61,6.61,0,0,0,.85,1.88,6.51,6.51,0,0,0,8.39,2.07l28.86,42.2a6.49,6.49,0,0,0,.7,10.34L1784,876.69a6.47,6.47,0,0,0-8.47,5.79l-56.28,4.3-32.08-46.9a6.52,6.52,0,0,0,.53-8,6.82,6.82,0,0,0-1.33-1.4l21.9-45.64a6.48,6.48,0,0,0,7.88-6.14Zm57.17,159a6.43,6.43,0,0,0-1-2.39,6.5,6.5,0,0,0-8.38-2.09l-28.44-41.56a6.53,6.53,0,0,0,1.11-8.58,6.77,6.77,0,0,0-1.9-1.84L1807.3,832a6.5,6.5,0,0,0,8.6-5.88l50.18-3.84a6.58,6.58,0,0,0,1,2.44,6.51,6.51,0,0,0,8.39,2.08l28.38,41.49a6.51,6.51,0,0,0-1.1,8.58,6.38,6.38,0,0,0,1.92,1.85l-21.78,45.4a6.47,6.47,0,0,0-8.59,5.87Zm-91.91,62.37a6.46,6.46,0,0,0-8.59-4.5L1695.13,950a6.52,6.52,0,0,0,.53-8,6.13,6.13,0,0,0-1.58-1.59l24.71-51.49,56.94-4.35a6.33,6.33,0,0,0,.9,2.05,6.51,6.51,0,0,0,7.67,2.41l28.58,41.8a6.41,6.41,0,0,0,1,9.57l-21.82,45.51a6.46,6.46,0,0,0-5.4.88,6.56,6.56,0,0,0-2.85,5.5Zm-90.32,62.24a6.52,6.52,0,0,0-9.4-4.46l-28.43-41.58a6.51,6.51,0,0,0-.8-10.4l21.77-45.38a6.48,6.48,0,0,0,8.6-5.88l50.18-3.83a6.51,6.51,0,0,0,9.42,4.52l28.37,41.49a6.51,6.51,0,0,0-1.1,8.58,6.37,6.37,0,0,0,1.93,1.84l-21.79,45.4a6.48,6.48,0,0,0-8.59,5.88Zm-98.74-47.51a6.65,6.65,0,0,0-.91-2,6.49,6.49,0,0,0-8.38-2.08l-29.07-42.51a6.54,6.54,0,0,0,.83-8.35,6.68,6.68,0,0,0-1.3-1.35L1526.27,909a6.46,6.46,0,0,0,7.78-5.66l51.48-3.93a6.4,6.4,0,0,0,.74,1.48,6.51,6.51,0,0,0,7.66,2.42l28.94,42.31a6.5,6.5,0,0,0-1.1,8.57,6.32,6.32,0,0,0,1.8,1.77l-21.8,45.41a6.47,6.47,0,0,0-8.46,5.78Zm-32.8,53.25a6.51,6.51,0,0,0-8.81,5.28l-50.39,3.85a6,6,0,0,0-.87-1.92,6.51,6.51,0,0,0-7.66-2.43l-32-46.72,24.69-51.47a6.48,6.48,0,0,0,8.22-5.22l50.45-3.86a6.41,6.41,0,0,0,8.8,3.95l29.15,42.62a6.52,6.52,0,0,0-.52,8,6,6,0,0,0,1.24,1.32Zm-50.68,118.89a6.66,6.66,0,0,0-1-2.38,6.51,6.51,0,0,0-8.39-2.09L1421.88,1137a6.5,6.5,0,0,0-.81-10.4l21.78-45.39a6.47,6.47,0,0,0,8.59-5.88l50.18-3.83a6.51,6.51,0,0,0,9.42,4.52l28.38,41.49a6.51,6.51,0,0,0-1.11,8.58,6.37,6.37,0,0,0,1.93,1.84l-21.78,45.4a6.49,6.49,0,0,0-8.6,5.88Zm-91.11,62.31a6.42,6.42,0,0,0-1-2.38,6.51,6.51,0,0,0-8.39-2.09L1330.56,1199a6.51,6.51,0,0,0,1.1-8.57,6.27,6.27,0,0,0-1.65-1.64l21.83-45.51a6.46,6.46,0,0,0,8.23-5.63l51.2-3.91a6.44,6.44,0,0,0,8.58,4.47l28.58,41.79a6.45,6.45,0,0,0,1,9.59l-22.09,46a6.47,6.47,0,0,0-8.59,5.88Zm-57-159a6.46,6.46,0,0,0,9.36,4.33l28.38,41.49a6.53,6.53,0,0,0-1.11,8.58,6.22,6.22,0,0,0,2.1,1.93L1328.53,1188a6.51,6.51,0,0,0-8.79,6l-50.13,3.83a6.46,6.46,0,0,0-9.42-4.65l-28.43-41.58a6.51,6.51,0,0,0,1.11-8.57,6.8,6.8,0,0,0-1.75-1.72l21.8-45.44a6.45,6.45,0,0,0,8.39-5.74Zm32.46-52.73a6.46,6.46,0,0,0,8.39-5.74l56.34-4.31,31.89,46.62a6.52,6.52,0,0,0-1.11,8.59,6.28,6.28,0,0,0,1.8,1.76l-21.79,45.41a6.49,6.49,0,0,0-8.48,5.79l-51.11,3.9a6.3,6.3,0,0,0-1-2.27,6.52,6.52,0,0,0-7.66-2.42l-28.53-41.71a6.52,6.52,0,0,0,.53-8,6.66,6.66,0,0,0-1.43-1.47Zm-90.57-55.1a6.48,6.48,0,0,0-9.36-4.36l-28.43-41.57a6.49,6.49,0,0,0-.9-10.46l21.76-45.36a6.49,6.49,0,0,0,8.71-6l50.17-3.83a6.6,6.6,0,0,0,1,2.55,6.52,6.52,0,0,0,8.39,2.08l28.38,41.49a6.51,6.51,0,0,0-1.1,8.58,6.36,6.36,0,0,0,1.83,1.79l-21.8,45.43a6.46,6.46,0,0,0-8.47,5.78Zm-99.56-47.24a6.37,6.37,0,0,0-.89-2,6.52,6.52,0,0,0-8.39-2.09l-28.75-42a6.51,6.51,0,0,0,1.1-8.56,6.72,6.72,0,0,0-1.8-1.77l21.8-45.43a6.46,6.46,0,0,0,8.43-5.77l56.31-4.3,32.16,47a6.51,6.51,0,0,0-.54,8,6.36,6.36,0,0,0,1.25,1.33l-21.91,45.65a6.51,6.51,0,0,0-7.8,6.08ZM1038,782a6.49,6.49,0,0,0,8.6-5.88l50.19-3.84a6.4,6.4,0,0,0,1,2.44,6.5,6.5,0,0,0,8.4,2.08l28.38,41.49a6.49,6.49,0,0,0,.82,10.43l-21.78,45.4a6.47,6.47,0,0,0-8.59,5.87l-50.17,3.83a6.69,6.69,0,0,0-1-2.38,6.53,6.53,0,0,0-8.39-2.09l-28.43-41.57a6.5,6.5,0,0,0-.81-10.4ZM930.52,625.16a6.48,6.48,0,0,0,7.79-6.08l50.2-3.83a6.43,6.43,0,0,0,1,2.41,6.53,6.53,0,0,0,9.08,1.7l28.29,41.36a6.55,6.55,0,0,0-1.71,9.1,6.41,6.41,0,0,0,2.66,2.2l-21.76,45.35a6.48,6.48,0,0,0-9.34,5.59l-50.15,3.83a6.69,6.69,0,0,0-1-2.41A6.52,6.52,0,0,0,937.9,722l-28.58-41.79a6.51,6.51,0,0,0,.53-8,7.16,7.16,0,0,0-1.24-1.33Zm-49.19-167a6.4,6.4,0,0,0,1.06,2.83,6.55,6.55,0,0,0,9.09,1.71l28.28,41.36a6.49,6.49,0,0,0,.57,11.11l-21.75,45.33a6.5,6.5,0,0,0-8.93,5.36l-50.32,3.85a6.43,6.43,0,0,0-8.56-4.42l-28.58-41.79a6.52,6.52,0,0,0,.53-8,6.71,6.71,0,0,0-1.59-1.6L823,468.4a6.5,6.5,0,0,0,8.24-6.39Zm99.42,47.46a6,6,0,0,0,.89,2,6.52,6.52,0,0,0,8.39,2.07l28.43,41.58a6.52,6.52,0,0,0-1.1,8.58,6.31,6.31,0,0,0,2.23,2L997.48,608a6.49,6.49,0,0,0-9.05,5.43l-50.28,3.84a6.34,6.34,0,0,0-.95-2.17,6.51,6.51,0,0,0-7.67-2.41L901,570.91a6.45,6.45,0,0,0-1-9.54l21.87-45.58a6.48,6.48,0,0,0,8.08-6.26Zm32.34-52.33a6.51,6.51,0,0,0,7.81-6.08l50.19-3.84a6.64,6.64,0,0,0,1,2.42,6.55,6.55,0,0,0,9.09,1.7l28.29,41.36a6.54,6.54,0,0,0-1.71,9.09,6.47,6.47,0,0,0,2.65,2.21l-21.75,45.34a6.48,6.48,0,0,0-9.35,5.6l-50.15,3.82a6.59,6.59,0,0,0-1-2.41,6.51,6.51,0,0,0-7.67-2.41l-28.58-41.8a6.38,6.38,0,0,0-.72-9.34Zm-7.58-110.19a6.47,6.47,0,0,0,8.44-5.77l50.14-3.83a6.37,6.37,0,0,0,.89,2,6.53,6.53,0,0,0,8.4,2.09l28.43,41.57a6.46,6.46,0,0,0,1.13,10.58l-22.36,46.59a6.48,6.48,0,0,0-9.54,5l-50.37,3.85a6.39,6.39,0,0,0-.88-2,6.51,6.51,0,0,0-6.88-2.66l-28.33-41.42a6.49,6.49,0,0,0,1.1-8.57,6.29,6.29,0,0,0-2-1.89Z"/></g></svg>